<svg width="256" height="256" viewBox="0 0 256 256" fill="none" xmlns="http://www.w3.org/2000/svg">
<mask id="mask0" style="mask-type:alpha" maskUnits="userSpaceOnUse" x="0" y="0" width="256" height="256">
<circle cx="128" cy="128" r="128" fill="#C4C4C4"/>
</mask>
<g mask="url(#mask0)">
<ellipse cx="164.5" cy="169.5" rx="241.5" ry="196.5" fill="black"/>
<g clip-path="url(#clip0)">
<circle cx="75.0625" cy="154.906" r="18.9062" fill="#F0BD70"/>
<path d="M75.0625 170.031H139.344V264.073C139.344 264.073 125.569 272.125 107.203 272.125C88.8371 272.125 75.0625 258.976 75.0625 258.976V170.031Z" fill="#F0BD70"/>
<path d="M139.344 218.688C139.344 240.066 136.008 238.042 114.323 238.042C92.6392 238.042 82.6311 220.712 82.6311 199.333C82.6311 177.954 81.808 158.688 99.3113 158.688C148.797 160.578 139.344 197.309 139.344 218.688Z" fill="#E9B05B"/>
<path d="M180.506 151.5C180.506 185.238 194.443 226.724 133.672 226.724C72.9012 226.724 72.9012 185.238 72.9012 151.5C63.7188 111.422 65.6093 64.1563 128 64.1563C190.391 64.1562 180.506 117.762 180.506 151.5Z" fill="#FFCB7E"/>
<rect x="143.125" y="170.031" width="11.3438" height="7.5625" rx="3.78125" fill="#F0BD70"/>
</g>
</g>
<defs>
<clipPath id="clip0">
<rect width="242" height="242" fill="white" transform="translate(7 15)"/>
</clipPath>
</defs>
</svg>
