<svg width="256" height="256" viewBox="0 0 256 256" fill="none" xmlns="http://www.w3.org/2000/svg">
<mask id="mask0" style="mask-type:alpha" maskUnits="userSpaceOnUse" x="0" y="0" width="256" height="256">
<circle r="128" transform="matrix(-1 0 0 1 128 128)" fill="#C4C4C4"/>
</mask>
<g mask="url(#mask0)">
<ellipse cx="128" cy="144.5" rx="165" ry="161.5" fill="#FFBAF8"/>
<g clip-path="url(#clip0)">
<circle cx="69.75" cy="147.375" r="19.375" fill="#68463C"/>
<path d="M69.75 162.875H135.625V259.248C135.625 259.248 121.509 267.5 102.687 267.5C83.8661 267.5 69.75 254.025 69.75 254.025V162.875Z" fill="#68463C"/>
<path d="M135.625 212.738C135.625 234.647 132.206 232.572 109.984 232.572C87.7625 232.572 77.5062 214.812 77.5062 192.903C77.5062 170.994 76.6628 151.25 94.6 151.25C145.313 153.188 135.625 190.829 135.625 212.738Z" fill="#553329"/>
<path d="M177.807 143.884C177.807 178.459 192.09 220.974 129.812 220.974C67.535 220.974 67.535 178.459 67.535 143.884C58.1249 102.812 60.0624 54.375 124 54.375C187.937 54.375 177.807 109.31 177.807 143.884Z" fill="#836055"/>
<rect x="139.5" y="162.875" width="11.625" height="7.75" rx="3.875" fill="#68463C"/>
</g>
<g clip-path="url(#clip1)">
<path d="M-0.00396213 42.7424C30.9853 11.7573 50.3784 54.3724 50.3784 54.3724L42.6229 85.3702C42.6229 85.3702 34.8716 95.0564 42.6229 124.119C50.3741 153.181 32.9341 168.681 32.9341 168.681C32.9341 168.681 19.3748 178.375 7.7498 170.625C-3.8752 162.875 -5.41591 155.429 -3.8752 141.562C-1.9377 124.125 3.87149 129.931 3.87149 112.494C3.87149 95.0564 -30.9932 73.7275 -0.00396213 42.7424Z" fill="#1B0B47"/>
<path d="M50.4942 55.0776L71.8346 64.3052L57.9933 96.3159L36.6528 87.0883C36.6528 87.0883 32.9372 79.5624 38.7429 67.941C44.5487 56.3196 50.4942 55.0776 50.4942 55.0776Z" fill="#FF6C98"/>
<path fill-rule="evenodd" clip-rule="evenodd" d="M193.479 97C192.833 90.0866 191.038 83.2937 188.146 76.8618C184.446 68.6344 179.022 61.1588 172.186 54.8618C165.349 48.5648 157.233 43.5698 148.3 40.1619C139.367 36.754 129.794 35 120.125 35C119.448 35 118.771 35.0086 118.094 35.0258C115.684 34.9584 113.268 35.023 110.854 35.221C99.7939 36.128 89.0282 39.8128 79.2837 46.0266C69.5391 52.2404 61.0427 60.8386 54.368 71.2406C47.6934 81.6425 42.9958 93.6061 40.5926 106.324C38.1894 119.041 38.1364 132.217 40.4372 144.96C42.738 157.704 47.3391 169.719 53.9298 180.195C58.4132 187.321 63.7463 193.622 69.75 198.913V166.75C59.0495 166.75 50.375 158.076 50.375 147.375C50.375 138.45 56.4099 130.934 64.6216 128.686L69.75 162.875C69.75 162.875 81.375 161.311 87.1875 156.621C90.0938 154.275 90.0938 149.542 90.0938 143.7C90.0938 137.857 90.0938 130.906 93 124.125C95.2628 118.845 98.1129 113.859 100.75 109.738V113.607C100.75 113.607 118.635 120.25 149.038 120.25C161.481 120.25 171.228 119.137 178.402 117.823C178.377 122.344 178.234 126.825 178.096 131.157L178.096 131.158C177.955 135.596 177.819 139.877 177.819 143.884C177.819 149.452 177.429 155.125 176.668 160.75C179.349 159.934 182.057 158.848 184.068 157.436C189.881 153.357 189.881 147.919 189.881 147.919V115.029C192.476 114.199 193.75 113.607 193.75 113.607V102.812V97H193.479Z" fill="#1B0B47"/>
</g>
<rect x="116.25" y="143.5" width="11.625" height="15.5" rx="5.8125" fill="#1B0B47"/>
<rect x="155" y="143.5" width="11.625" height="15.5" rx="5.8125" fill="#1B0B47"/>
<g clip-path="url(#clip2)">
<g clip-path="url(#clip3)">
<rect x="28.7856" y="240.771" width="142.347" height="81.8495" rx="32.0281" fill="#3633E0"/>
</g>
</g>
</g>
<defs>
<clipPath id="clip0">
<rect width="248" height="248" fill="white" transform="translate(0 4)"/>
</clipPath>
<clipPath id="clip1">
<rect width="248" height="248" fill="white" transform="translate(0 4)"/>
</clipPath>
<clipPath id="clip2">
<rect width="227.755" height="227.755" fill="white" transform="translate(3.875 27.25)"/>
</clipPath>
<clipPath id="clip3">
<rect width="227.755" height="227.755" fill="white" transform="translate(3.875 27.25)"/>
</clipPath>
</defs>
</svg>
