<svg width="256" height="256" viewBox="0 0 256 256" fill="none" xmlns="http://www.w3.org/2000/svg">
<mask id="mask0" style="mask-type:alpha" maskUnits="userSpaceOnUse" x="0" y="0" width="256" height="256">
<path d="M256 128C256 57.3075 198.692 0 128 0C57.3075 0 0 57.3075 0 128C0 198.692 57.3075 256 128 256C198.692 256 256 198.692 256 128Z" fill="black"/>
</mask>
<g mask="url(#mask0)">
<circle cx="128" cy="128" r="128" fill="#C4C4C4"/>
<g clip-path="url(#clip0)">
<circle cx="77.1695" cy="136.97" r="18.5763" fill="#68463C"/>
<path d="M77.1696 151.831H140.329V244.231C140.329 244.231 126.795 252.142 108.749 252.142C90.7037 252.142 77.1696 239.223 77.1696 239.223V151.831Z" fill="#68463C"/>
<path d="M140.329 199.638C140.329 220.643 137.051 218.655 115.745 218.655C94.4395 218.655 84.6061 201.626 84.6061 180.621C84.6061 159.615 83.7974 140.685 100.995 140.685C149.617 142.542 140.329 178.632 140.329 199.638Z" fill="#553329"/>
<path d="M180.772 133.623C180.772 166.772 194.466 207.534 134.756 207.534C75.0459 207.534 75.0459 166.772 75.0459 133.623C66.0237 94.2441 67.8813 47.8035 129.183 47.8035C190.485 47.8035 180.772 100.474 180.772 133.623Z" fill="#836055"/>
<rect x="144.044" y="151.831" width="11.1458" height="7.43051" rx="3.71525" fill="#68463C"/>
</g>
<g clip-path="url(#clip1)">
<path d="M170.051 138.827C170.051 141.905 167.556 144.4 164.478 144.4V144.4C161.4 144.4 158.905 141.905 158.905 138.827L158.905 134.268C158.905 133.708 159.359 133.254 159.918 133.254L169.038 133.254C169.597 133.254 170.051 133.708 170.051 134.268L170.051 138.827Z" fill="#1B0B47"/>
<path d="M132.898 138.827C132.898 141.905 130.403 144.4 127.325 144.4V144.4C124.248 144.4 121.753 141.905 121.753 138.827L121.753 134.268C121.753 133.708 122.206 133.254 122.766 133.254L131.885 133.254C132.445 133.254 132.898 133.708 132.898 134.268L132.898 138.827Z" fill="#1B0B47"/>
<line x1="119.895" y1="135.112" x2="134.756" y2="135.112" stroke="#1B0B47" stroke-width="3.71525" stroke-linecap="round"/>
<line x1="157.048" y1="135.112" x2="171.909" y2="135.112" stroke="#1B0B47" stroke-width="3.71525" stroke-linecap="round"/>
<path fill-rule="evenodd" clip-rule="evenodd" d="M187.73 93.7956C187.73 85.3163 186.06 76.9201 182.815 69.0863C179.571 61.2525 174.814 54.1345 168.819 48.1387C162.823 42.143 155.705 37.3869 147.871 34.142C140.037 30.8972 131.641 29.2271 123.162 29.2271C114.683 29.2271 106.286 30.8972 98.4525 34.142C90.6187 37.3869 83.5007 42.143 77.505 48.1387C71.5092 54.1345 66.7531 61.2525 63.5083 69.0863C60.4928 76.3663 58.8373 84.132 58.6183 91.9986L58.5933 92.002V237.281H98.0518V128.223C106.965 126.508 122.37 122.735 141.845 114.747C161.454 106.703 173.687 99.1041 180.121 94.5194C180.991 103.576 180.69 113.034 180.411 121.83L180.411 121.831C180.28 125.938 180.154 129.902 180.154 133.611C180.154 135.073 180.125 136.543 180.067 138.017C180.894 137.756 181.666 137.47 182.352 137.158C187.732 134.703 187.732 131.431 187.732 131.431V93.7972H181.122L181.124 93.7956H187.73ZM69.3547 122.489C68.6772 122.997 68.0351 123.554 67.4337 124.155C65.7682 125.821 64.4471 127.798 63.5457 129.974C62.6443 132.15 62.1804 134.482 62.1804 136.838C62.1804 139.193 62.6443 141.525 63.5457 143.702C64.4471 145.878 65.7682 147.855 67.4337 149.52C68.0351 150.122 68.6772 150.678 69.3547 151.186V122.489Z" fill="#1B0B47"/>
</g>
<g clip-path="url(#clip2)">
<rect x="4.96875" y="236.875" width="171.25" height="98.4688" rx="38.5312" fill="#FF4DD8"/>
</g>
</g>
<defs>
<clipPath id="clip0">
<rect width="237.776" height="237.776" fill="white" transform="translate(10.2949 -0.494873)"/>
</clipPath>
<clipPath id="clip1">
<path d="M10.2949 118.393C10.2949 52.7331 63.5229 -0.494873 129.183 -0.494873V-0.494873C194.843 -0.494873 248.071 52.7331 248.071 118.393V118.393C248.071 184.053 194.843 237.281 129.183 237.281V237.281C63.5229 237.281 10.2949 184.053 10.2949 118.393V118.393Z" fill="white"/>
</clipPath>
<clipPath id="clip2">
<rect width="274" height="274" fill="white" transform="translate(-25 -20)"/>
</clipPath>
</defs>
</svg>
