<svg width="256" height="256" viewBox="0 0 256 256" fill="none" xmlns="http://www.w3.org/2000/svg">
<mask id="mask0" style="mask-type:alpha" maskUnits="userSpaceOnUse" x="0" y="0" width="256" height="256">
<circle r="128" transform="matrix(-1 0 0 1 128 128)" fill="#C4C4C4"/>
</mask>
<g mask="url(#mask0)">
<circle cx="129" cy="132" r="186" fill="#4C6FFF"/>
<g clip-path="url(#clip0)">
<circle cx="70.4062" cy="150.891" r="20.3906" fill="#836055"/>
<path d="M70.4062 167.203H139.734V268.628C139.734 268.628 124.878 277.312 105.07 277.312C85.2623 277.312 70.4062 263.131 70.4062 263.131V167.203Z" fill="#836055"/>
<path d="M139.734 219.68C139.734 242.737 125.46 244.686 112.75 240.554C100.039 236.423 74.4836 200.454 74.4836 177.397C74.4836 154.34 77.6814 154.969 96.5588 154.969C149.93 157.008 139.734 196.623 139.734 219.68Z" fill="#553329"/>
<path d="M184.128 147.217C184.128 183.604 168.275 224.297 141.767 230.414C103.025 226.336 68.0752 183.604 68.0752 147.217C58.1719 103.992 60.2109 53.0156 127.5 53.0156C194.789 53.0156 184.128 110.83 184.128 147.217Z" fill="#836055"/>
<rect x="143.812" y="167.203" width="12.2344" height="8.15625" rx="4.07812" fill="#68463C"/>
</g>
<g clip-path="url(#clip1)">
<g clip-path="url(#clip2)">
<rect x="31.3728" y="245.104" width="149.809" height="86.14" rx="33.7069" fill="#3633E0"/>
<path d="M68.825 237.613H139.984V248.849C139.984 248.849 121.258 252.594 104.405 252.594C87.551 252.594 68.825 248.849 68.825 248.849V237.613Z" fill="#3633E0"/>
<path d="M68.825 237.613H139.984V245.103C139.984 245.103 128.748 250.721 104.405 250.721C80.0606 250.721 68.825 245.103 68.825 245.103V237.613Z" fill="#362ABC"/>
<path d="M66.9524 241.358C66.9524 237.222 70.306 233.868 74.4428 233.868H134.366C138.503 233.868 141.857 237.222 141.857 241.358V241.358C141.857 241.358 123.131 245.104 104.405 245.104C85.6785 245.104 66.9524 241.358 66.9524 241.358V241.358Z" fill="#3633E0"/>
</g>
</g>
<path fill-rule="evenodd" clip-rule="evenodd" d="M184.463 132.471C189.411 129.669 192.75 124.358 192.75 118.266C192.75 116.255 192.386 114.33 191.721 112.552C197.159 109.907 200.906 104.328 200.906 97.875C200.906 88.8659 193.603 81.5625 184.594 81.5625C182.863 81.5625 181.195 81.8321 179.629 82.3317C185.41 97.3143 184.987 115.847 184.463 132.471Z" fill="#1B0B47"/>
<path fill-rule="evenodd" clip-rule="evenodd" d="M145.022 92.8155C141.433 95.9654 136.729 97.875 131.578 97.875C126.882 97.875 122.557 96.2877 119.11 93.6204C113.947 98.7696 106.822 101.953 98.9531 101.953C96.0511 101.953 93.2502 101.52 90.6116 100.715C89.5527 101.875 88.3285 102.881 86.9765 103.697C89.3607 106.533 90.7969 110.192 90.7969 114.188C90.7969 120.698 86.9824 126.318 81.4663 128.935C82.2048 129.945 82.6406 131.191 82.6406 132.539C82.6406 135.917 79.9019 138.656 76.5234 138.656C76.4759 138.656 76.4284 138.656 76.3811 138.655C73.5608 143.531 68.2886 146.812 62.25 146.812C53.2409 146.812 45.9375 139.509 45.9375 130.5C45.9375 128.841 46.1852 127.239 46.6457 125.731C43.6887 122.778 41.8594 118.696 41.8594 114.188C41.8594 109.679 43.6887 105.597 46.6457 102.644C46.1852 101.136 45.9375 99.5343 45.9375 97.875C45.9375 93.9367 47.3331 90.3244 49.6567 87.5057C47.2896 83.3464 45.9375 78.5342 45.9375 73.4062C45.9375 60.4593 54.5564 49.5255 66.3694 46.0293C66.3421 45.6429 66.3281 45.2528 66.3281 44.8594C66.3281 35.8502 73.6315 28.5469 82.6406 28.5469C85.5061 28.5469 88.1991 29.2857 90.5393 30.5833C95.4756 22.0521 104.7 16.3125 115.266 16.3125C120.866 16.3125 126.09 17.9253 130.498 20.7119C135.339 15.4973 142.253 12.2344 149.93 12.2344C161.008 12.2344 170.499 19.0305 174.461 28.6811C182.478 29.7124 188.672 36.5625 188.672 44.8594C188.672 45.7058 188.607 46.5372 188.483 47.3488C196.05 52.9501 200.906 61.627 200.906 71.3672C200.906 88.2593 186.3 101.953 168.281 101.953C159.175 101.953 150.941 98.4557 145.022 92.8155Z" fill="#1B0B47"/>
<path d="M172.359 152.93C172.359 156.308 169.621 159.047 166.242 159.047V159.047C162.864 159.047 160.125 156.308 160.125 152.93L160.125 147.925C160.125 147.31 160.623 146.813 161.237 146.813L171.247 146.812C171.861 146.812 172.359 147.31 172.359 147.925L172.359 152.93Z" fill="#1B0B47"/>
<path d="M131.578 152.93C131.578 156.308 128.839 159.047 125.461 159.047V159.047C122.083 159.047 119.344 156.308 119.344 152.93L119.344 147.925C119.344 147.31 119.842 146.813 120.456 146.813L130.466 146.812C131.08 146.812 131.578 147.31 131.578 147.925L131.578 152.93Z" fill="#1B0B47"/>
<line x1="117.305" y1="148.852" x2="133.617" y2="148.852" stroke="#1B0B47" stroke-width="4.07812" stroke-linecap="round"/>
<line x1="158.086" y1="148.852" x2="174.398" y2="148.852" stroke="#1B0B47" stroke-width="4.07812" stroke-linecap="round"/>
</g>
<defs>
<clipPath id="clip0">
<rect width="261" height="261" fill="white" transform="translate(-3)"/>
</clipPath>
<clipPath id="clip1">
<rect width="239.694" height="239.694" fill="white" transform="translate(5.15625 20.3906)"/>
</clipPath>
<clipPath id="clip2">
<rect width="239.694" height="239.694" fill="white" transform="translate(5.15625 20.3906)"/>
</clipPath>
</defs>
</svg>
