<svg width="256" height="256" viewBox="0 0 256 256" fill="none" xmlns="http://www.w3.org/2000/svg">
<mask id="mask0" style="mask-type:alpha" maskUnits="userSpaceOnUse" x="0" y="0" width="256" height="256">
<circle r="128" transform="matrix(-1 0 0 1 128 128)" fill="#C4C4C4"/>
</mask>
<g mask="url(#mask0)">
<circle cx="128" cy="171" r="181" fill="#65207D"/>
<g clip-path="url(#clip0)">
<circle cx="72" cy="148" r="20" fill="#F0BD70"/>
<path d="M72 164H140V263.482C140 263.482 125.429 272 106 272C86.5714 272 72 258.09 72 258.09V164Z" fill="#F0BD70"/>
<path d="M140 215.471C140 238.087 125.999 239.999 113.532 235.946C101.065 231.893 75.9993 196.614 75.9993 173.999C75.9993 151.383 79.1357 152 97.6515 152C150 154 140 192.856 140 215.471Z" fill="#E9B05B"/>
<path d="M183.543 144.397C183.543 180.087 167.994 220 141.994 226C103.994 222 69.7136 180.087 69.7136 144.397C60 102 61.9999 52 128 52C194 52 183.543 108.707 183.543 144.397Z" fill="#FFCB7E"/>
<rect x="144" y="164" width="12" height="8" rx="4" fill="#F0BD70"/>
</g>
<g clip-path="url(#clip1)">
<g clip-path="url(#clip2)">
<rect x="33.7142" y="240.408" width="146.939" height="84.4898" rx="33.0612" fill="#3633E0"/>
<path d="M70.449 233.061H140.245V244.081C140.245 244.081 121.878 247.755 105.347 247.755C88.8163 247.755 70.449 244.081 70.449 244.081V233.061Z" fill="#3633E0"/>
<path d="M70.449 233.061H140.245V240.408C140.245 240.408 129.224 245.918 105.347 245.918C81.4694 245.918 70.449 240.408 70.449 240.408V233.061Z" fill="#362ABC"/>
<path d="M68.6123 236.735C68.6123 232.677 71.9016 229.388 75.9592 229.388H134.735C138.792 229.388 142.082 232.677 142.082 236.735V236.735C142.082 236.735 123.714 240.408 105.347 240.408C86.9797 240.408 68.6123 236.735 68.6123 236.735V236.735Z" fill="#3633E0"/>
</g>
</g>
<path d="M119.714 184C119.714 181.791 121.505 180 123.714 180H160.286C162.495 180 164.286 181.791 164.286 184V184C164.286 195.046 155.331 204 144.286 204H139.714C128.669 204 119.714 195.046 119.714 184V184Z" fill="#66253C"/>
<path fill-rule="evenodd" clip-rule="evenodd" d="M151.019 202.838C148.915 203.59 146.648 204 144.286 204H139.714C128.936 204 120.15 195.474 119.73 184.799C122.786 183.656 127.322 183.787 131.8 183.917C133.222 183.959 134.639 184 136 184C144.837 184 152 190.268 152 198C152 199.701 151.653 201.33 151.019 202.838Z" fill="#B03E67"/>
<path d="M124 180H164V184C164 186.209 162.209 188 160 188H128C125.791 188 124 186.209 124 184V180Z" fill="white"/>
<path d="M132 181.2C132 180.537 132.537 180 133.2 180H138.8C139.463 180 140 180.537 140 181.2V190.8C140 191.463 139.463 192 138.8 192H133.2C132.537 192 132 191.463 132 190.8V181.2Z" fill="#B03E67"/>
<g clip-path="url(#clip3)">
<path fill-rule="evenodd" clip-rule="evenodd" d="M192 100C192 90.5448 190.138 81.1822 186.519 72.4468C182.901 63.7113 177.598 55.7741 170.912 49.0883C164.226 42.4025 156.289 37.099 147.553 33.4807C138.818 29.8623 129.455 28 120 28C110.545 28 101.182 29.8623 92.4468 33.4807C83.7113 37.099 75.7741 42.4025 69.0883 49.0883C62.4025 55.7741 57.099 63.7114 53.4807 72.4468C50.1181 80.5647 48.2721 89.2241 48.0279 97.9962L48 98V100V260H92V138.39C101.939 136.477 119.117 132.27 140.833 123.363C162.687 114.399 176.325 105.929 183.503 100.816C184.472 110.911 184.136 121.455 183.825 131.259C183.679 135.84 183.539 140.26 183.539 144.397C183.539 146.027 183.506 147.667 183.442 149.312C184.366 149.02 185.229 148.7 185.995 148.351C191.995 145.614 191.995 141.965 191.995 141.965V100H192ZM60 132C59.2446 132.567 58.5286 133.187 57.8579 133.858C56.0007 135.715 54.5275 137.92 53.5224 140.346C52.5173 142.773 52 145.374 52 148C52 150.626 52.5173 153.227 53.5224 155.654C54.5275 158.08 56.0007 160.285 57.8579 162.142C58.5286 162.813 59.2446 163.433 60 164V132Z" fill="#47280B"/>
</g>
<rect x="96" y="156" width="20" height="12" rx="6" fill="#FF859B"/>
<rect x="172" y="156" width="16" height="12" rx="6" fill="#FF859B"/>
<path d="M120 150C120 146.686 122.686 144 126 144V144C129.314 144 132 146.686 132 150V154.909C132 155.512 131.512 156 130.909 156H121.091C120.488 156 120 155.512 120 154.909V150Z" fill="#1B0B47"/>
<path d="M160 150C160 146.686 162.686 144 166 144V144C169.314 144 172 146.686 172 150V154.909C172 155.512 171.512 156 170.909 156H161.091C160.488 156 160 155.512 160 154.909V150Z" fill="#1B0B47"/>
</g>
<defs>
<clipPath id="clip0">
<rect width="256" height="256" fill="white"/>
</clipPath>
<clipPath id="clip1">
<rect width="235.102" height="235.102" fill="white" transform="translate(8 20)"/>
</clipPath>
<clipPath id="clip2">
<rect width="235.102" height="235.102" fill="white" transform="translate(8 20)"/>
</clipPath>
<clipPath id="clip3">
<rect width="256" height="256" fill="white"/>
</clipPath>
</defs>
</svg>
