<svg width="256" height="256" viewBox="0 0 256 256" fill="none" xmlns="http://www.w3.org/2000/svg">
<mask id="mask0" style="mask-type:alpha" maskUnits="userSpaceOnUse" x="0" y="0" width="256" height="256">
<circle cx="128" cy="128" r="128" fill="#C4C4C4"/>
</mask>
<g mask="url(#mask0)">
<circle cx="128" cy="130" r="145" fill="#65207D"/>
<g clip-path="url(#clip0)">
<circle cx="64.8059" cy="149.657" r="20.2239" fill="#F0BD70"/>
<path d="M64.8059 165.836H133.567V266.431C133.567 266.431 118.833 275.045 99.1865 275.045C79.5404 275.045 64.8059 260.979 64.8059 260.979V165.836Z" fill="#F0BD70"/>
<path d="M133.567 217.883C133.567 240.752 129.999 238.587 106.803 238.587C83.6076 238.587 72.902 220.048 72.902 197.179C72.902 174.311 72.0216 153.701 90.7447 153.701C143.679 155.724 133.567 195.014 133.567 217.883Z" fill="#E9B05B"/>
<path d="M177.598 146.013C177.598 182.102 192.506 226.48 127.5 226.48C62.4939 226.48 62.4939 182.102 62.4939 146.013C52.6715 103.142 54.6938 52.582 121.433 52.582C188.172 52.582 177.598 109.924 177.598 146.013Z" fill="#FFCB7E"/>
<rect x="137.612" y="165.836" width="12.1343" height="8.08955" rx="4.04478" fill="#F0BD70"/>
</g>
<path fill-rule="evenodd" clip-rule="evenodd" d="M177.929 131.388C182.837 128.609 186.149 123.341 186.149 117.298C186.149 115.305 185.789 113.395 185.129 111.632C190.522 109.008 194.239 103.475 194.239 97.0746C194.239 88.1391 186.995 80.8955 178.06 80.8955C176.343 80.8955 174.688 81.163 173.135 81.6585C178.869 96.5186 178.449 114.9 177.929 131.388Z" fill="#AD3A20"/>
<path fill-rule="evenodd" clip-rule="evenodd" d="M138.812 92.0564C135.252 95.1806 130.586 97.0746 125.477 97.0746C120.82 97.0746 116.53 95.5003 113.112 92.8548C107.99 97.9619 100.923 101.119 93.1193 101.119C90.241 101.119 87.463 100.69 84.846 99.8915C83.7957 101.042 82.5816 102.04 81.2406 102.849C83.6053 105.662 85.0297 109.291 85.0297 113.254C85.0297 119.711 81.2465 125.285 75.7755 127.88C76.5079 128.883 76.9402 130.118 76.9402 131.455C76.9402 134.806 74.2238 137.522 70.873 137.522C70.8258 137.522 70.7788 137.522 70.7319 137.521C67.9347 142.358 62.7055 145.612 56.7163 145.612C47.7808 145.612 40.5372 138.368 40.5372 129.433C40.5372 127.787 40.7829 126.199 41.2397 124.703C38.3068 121.774 36.4924 117.726 36.4924 113.254C36.4924 108.782 38.3068 104.733 41.2397 101.805C40.7829 100.309 40.5372 98.7203 40.5372 97.0746C40.5372 93.1685 41.9214 89.5858 44.226 86.7901C41.8783 82.6648 40.5372 77.892 40.5372 72.8059C40.5372 59.9649 49.0856 49.1204 60.8021 45.6528C60.7749 45.2696 60.7611 44.8826 60.7611 44.4925C60.7611 35.557 68.0047 28.3134 76.9402 28.3134C79.7823 28.3134 82.4532 29.0462 84.7743 30.3332C89.6702 21.8717 98.8195 16.1791 109.298 16.1791C114.853 16.1791 120.034 17.7787 124.407 20.5425C129.208 15.3705 136.065 12.1343 143.679 12.1343C154.667 12.1343 164.08 18.8748 168.01 28.4465C175.961 29.4693 182.104 36.2635 182.104 44.4925C182.104 45.332 182.04 46.1566 181.917 46.9616C189.422 52.5171 194.239 61.123 194.239 70.7835C194.239 87.5375 179.751 101.119 161.88 101.119C152.849 101.119 144.682 97.6505 138.812 92.0564Z" fill="#AD3A20"/>
<g clip-path="url(#clip1)">
<path d="M117.099 194.149C117.099 191.915 118.91 190.104 121.144 190.104H158.125C160.359 190.104 162.169 191.915 162.169 194.149V194.149C162.169 205.319 153.115 214.373 141.946 214.373H137.323C126.154 214.373 117.099 205.319 117.099 194.149V194.149Z" fill="#66253C"/>
<path fill-rule="evenodd" clip-rule="evenodd" d="M148.754 213.199C146.626 213.959 144.334 214.373 141.946 214.373H137.323C126.424 214.373 117.539 205.752 117.115 194.958C120.205 193.802 124.792 193.935 129.32 194.066C130.758 194.108 132.191 194.149 133.567 194.149C142.503 194.149 149.746 200.488 149.746 208.306C149.746 210.026 149.396 211.674 148.754 213.199Z" fill="#B03E67"/>
<path d="M121.433 190.104H161.881V194.149C161.881 196.383 160.07 198.194 157.836 198.194H125.478C123.244 198.194 121.433 196.383 121.433 194.149V190.104Z" fill="white"/>
</g>
<g clip-path="url(#clip2)">
<path d="M113.343 151.679C113.343 148.328 116.06 145.612 119.41 145.612V145.612C122.761 145.612 125.478 148.328 125.478 151.679V156.643C125.478 157.252 124.984 157.746 124.374 157.746H114.446C113.837 157.746 113.343 157.252 113.343 156.643V151.679Z" fill="#1B0B47"/>
<path d="M153.791 151.679C153.791 148.328 156.507 145.612 159.858 145.612V145.612C163.209 145.612 165.925 148.328 165.925 151.679V156.643C165.925 157.252 165.431 157.746 164.822 157.746H154.894C154.285 157.746 153.791 157.252 153.791 156.643V151.679Z" fill="#1B0B47"/>
</g>
<path d="M99.1865 182.015C99.1865 182.015 117.388 179.992 143.679 173.925V182.015C137.612 184.711 121.433 188.486 113.343 190.104C103.231 192.127 99.1865 182.015 99.1865 182.015Z" fill="#AD3A20"/>
<path d="M186.149 181.027C186.149 181.027 169.97 177.97 145.701 173.925V182.015C151.48 184.382 164.288 186.662 171.992 188.082C181.623 189.858 186.149 181.027 186.149 181.027Z" fill="#AD3A20"/>
<path d="M126.734 223.444C126.096 220.891 128.027 218.418 130.658 218.418H144.566C147.197 218.418 149.128 220.891 148.49 223.444L147.479 227.489C147.028 229.289 145.411 230.552 143.555 230.552H131.669C129.813 230.552 128.195 229.289 127.745 227.489L126.734 223.444Z" fill="#AD3A20"/>
<g clip-path="url(#clip3)">
<g clip-path="url(#clip4)">
<rect x="26.0918" y="243.099" width="148.584" height="85.4356" rx="33.4313" fill="#3633E0"/>
</g>
</g>
</g>
<defs>
<clipPath id="clip0">
<rect width="258.866" height="258.866" fill="white" transform="translate(-8)"/>
</clipPath>
<clipPath id="clip1">
<rect width="258.866" height="258.866" fill="white" transform="translate(4.13428 8.0896)"/>
</clipPath>
<clipPath id="clip2">
<path d="M-8 129.433C-8 57.949 49.949 0 121.433 0V0C192.917 0 250.866 57.949 250.866 129.433V129.433C250.866 200.917 192.917 258.866 121.433 258.866V258.866C49.949 258.866 -8 200.917 -8 129.433V129.433Z" fill="white"/>
</clipPath>
<clipPath id="clip3">
<rect width="237.734" height="237.734" fill="white" transform="translate(0.0895996 20.2239)"/>
</clipPath>
<clipPath id="clip4">
<rect width="237.734" height="237.734" fill="white" transform="translate(0.0895996 20.2239)"/>
</clipPath>
</defs>
</svg>
