<svg width="256" height="256" viewBox="0 0 256 256" fill="none" xmlns="http://www.w3.org/2000/svg">
<mask id="mask0" style="mask-type:alpha" maskUnits="userSpaceOnUse" x="0" y="0" width="256" height="256">
<circle r="128" transform="matrix(-1 0 0 1 128 128)" fill="#C4C4C4"/>
</mask>
<g mask="url(#mask0)">
<ellipse cx="148.5" cy="136" rx="177.5" ry="182" fill="#F16063"/>
<g clip-path="url(#clip0)">
<circle cx="68" cy="148" r="20" fill="#F0BD70"/>
<path d="M68 164H136V263.482C136 263.482 121.429 272 102 272C82.5714 272 68 258.09 68 258.09V164Z" fill="#F0BD70"/>
<path d="M136 215.471C136 238.087 121.999 239.999 109.532 235.946C97.0651 231.893 71.9993 196.614 71.9993 173.999C71.9993 151.383 75.1357 152 93.6515 152C146 154 136 192.856 136 215.471Z" fill="#E9B05B"/>
<path d="M179.543 144.397C179.543 180.087 163.994 220 137.994 226C99.9937 222 65.7135 180.087 65.7135 144.397C55.9999 102 57.9998 52 124 52C190 52 179.543 108.707 179.543 144.397Z" fill="#FFCB7E"/>
<rect x="140" y="164" width="12" height="8" rx="4" fill="#F0BD70"/>
</g>
<g clip-path="url(#clip1)">
<g clip-path="url(#clip2)">
<rect x="29.7144" y="240.408" width="146.939" height="84.4898" rx="33.0612" fill="#E05A33"/>
<path d="M66.449 233.061H136.245V244.081C136.245 244.081 117.878 247.755 101.347 247.755C84.8163 247.755 66.449 244.081 66.449 244.081V233.061Z" fill="#E05A33"/>
<path d="M66.449 233.061H136.245V240.408C136.245 240.408 125.224 245.918 101.347 245.918C77.4694 245.918 66.449 240.408 66.449 240.408V233.061Z" fill="#C53926"/>
<path d="M64.6123 236.735C64.6123 232.677 67.9016 229.388 71.9592 229.388H130.735C134.792 229.388 138.082 232.677 138.082 236.735V236.735C138.082 236.735 119.714 240.408 101.347 240.408C82.9797 240.408 64.6123 236.735 64.6123 236.735V236.735Z" fill="#E05A33"/>
</g>
</g>
<path fill-rule="evenodd" clip-rule="evenodd" d="M179.871 129.933C184.725 127.186 188 121.975 188 116C188 114.028 187.644 112.14 186.991 110.396C192.325 107.801 196 102.33 196 96C196 87.1634 188.837 80 180 80C178.302 80 176.666 80.2645 175.131 80.7545C180.801 95.4502 180.386 113.628 179.871 129.933Z" fill="#47280B"/>
<path fill-rule="evenodd" clip-rule="evenodd" d="M141.187 91.0374C137.666 94.1269 133.052 96 128 96C123.394 96 119.152 94.4431 115.771 91.8269C110.706 96.8775 103.718 100 96 100C93.1536 100 90.4064 99.5753 87.8183 98.7857C86.7796 99.9232 85.5789 100.91 84.2528 101.71C86.5913 104.492 88 108.081 88 112C88 118.386 84.2586 123.898 78.8482 126.465C79.5725 127.456 80 128.678 80 130C80 133.314 77.3137 136 74 136C73.9533 136 73.9068 135.999 73.8604 135.998C71.0942 140.782 65.9229 144 60 144C51.1634 144 44 136.837 44 128C44 126.373 44.243 124.802 44.6947 123.322C41.7943 120.426 40 116.423 40 112C40 107.577 41.7943 103.574 44.6947 100.678C44.243 99.1982 44 97.6275 44 96C44 92.1372 45.3689 88.5941 47.648 85.8293C45.3262 81.7497 44 77.0297 44 72C44 59.3011 52.4537 48.5767 64.0405 45.1475C64.0137 44.7685 64 44.3858 64 44C64 35.1634 71.1634 28 80 28C82.8106 28 85.452 28.7247 87.7474 29.9974C92.5891 21.6296 101.637 16 112 16C117.493 16 122.617 17.5819 126.941 20.3151C131.689 15.2004 138.471 12 146 12C156.866 12 166.176 18.6659 170.062 28.1316C177.924 29.1432 184 35.8621 184 44C184 44.8302 183.937 45.6456 183.815 46.4418C191.237 51.9358 196 60.4464 196 70C196 86.5685 181.673 100 164 100C155.068 100 146.992 96.5696 141.187 91.0374Z" fill="#47280B"/>
<path d="M115.714 184C115.714 181.791 117.505 180 119.714 180H156.286C158.495 180 160.286 181.791 160.286 184V184C160.286 195.046 151.331 204 140.286 204H135.714C124.669 204 115.714 195.046 115.714 184V184Z" fill="#66253C"/>
<path fill-rule="evenodd" clip-rule="evenodd" d="M147.019 202.838C144.915 203.59 142.648 204 140.286 204H135.714C124.936 204 116.15 195.474 115.73 184.799C118.786 183.656 123.322 183.787 127.8 183.917C129.222 183.959 130.639 184 132 184C140.837 184 148 190.268 148 198C148 199.701 147.653 201.33 147.019 202.838Z" fill="#B03E67"/>
<path d="M120 180H160V184C160 186.209 158.209 188 156 188H124C121.791 188 120 186.209 120 184V180Z" fill="white"/>
<path d="M116 150C116 146.686 118.686 144 122 144V144C125.314 144 128 146.686 128 150V154.909C128 155.512 127.512 156 126.909 156H117.091C116.488 156 116 155.512 116 154.909V150Z" fill="#1B0B47"/>
<path d="M156 150C156 146.686 158.686 144 162 144V144C165.314 144 168 146.686 168 150V154.909C168 155.512 167.512 156 166.909 156H157.091C156.488 156 156 155.512 156 154.909V150Z" fill="#1B0B47"/>
</g>
<defs>
<clipPath id="clip0">
<rect width="256" height="256" fill="white" transform="translate(-4)"/>
</clipPath>
<clipPath id="clip1">
<rect width="235.102" height="235.102" fill="white" transform="translate(4 20)"/>
</clipPath>
<clipPath id="clip2">
<rect width="235.102" height="235.102" fill="white" transform="translate(4 20)"/>
</clipPath>
</defs>
</svg>
