<svg width="256" height="256" viewBox="0 0 256 256" fill="none" xmlns="http://www.w3.org/2000/svg">
<mask id="mask0" style="mask-type:alpha" maskUnits="userSpaceOnUse" x="0" y="0" width="256" height="256">
<circle cx="128" cy="128" r="128" fill="#AE2C72"/>
</mask>
<g mask="url(#mask0)">
<ellipse cx="128" cy="127.5" rx="156" ry="171.5" fill="#1B367B"/>
<g clip-path="url(#clip0)">
<circle cx="73.0746" cy="147.328" r="20.2985" fill="#F0BD70"/>
<path d="M73.0747 163.567H142.09V264.534C142.09 264.534 127.301 273.179 107.582 273.179C87.8636 273.179 73.0747 259.062 73.0747 259.062V163.567Z" fill="#F0BD70"/>
<path d="M142.089 215.806C142.089 238.76 127.88 240.7 115.227 236.587C102.574 232.473 77.1335 196.668 77.1335 173.715C77.1335 150.761 80.3168 151.388 99.109 151.388C152.239 153.418 142.089 192.853 142.089 215.806Z" fill="#E9B05B"/>
<path d="M186.283 143.671C186.283 179.894 170.501 220.403 144.113 226.493C105.546 222.433 70.7542 179.894 70.7542 143.671C60.8956 100.642 62.9254 49.8955 129.911 49.8955C196.896 49.8955 186.283 107.449 186.283 143.671Z" fill="#FFCB7E"/>
<rect x="146.149" y="163.567" width="12.1791" height="8.1194" rx="4.0597" fill="#F0BD70"/>
</g>
<rect x="56.8359" y="94.5522" width="36.5373" height="8.1194" rx="4.0597" fill="#AD3A20"/>
<rect x="56.8359" y="122.97" width="28.4179" height="8.1194" rx="4.0597" fill="#AD3A20"/>
<rect x="48.7163" y="106.731" width="52.7761" height="12.1791" rx="6.08955" fill="#AD3A20"/>
<g clip-path="url(#clip1)">
<path d="M125.561 187.925C125.561 185.683 127.378 183.866 129.62 183.866H166.738C168.98 183.866 170.797 185.683 170.797 187.925V187.925C170.797 199.136 161.71 208.224 150.499 208.224H145.859C134.649 208.224 125.561 199.136 125.561 187.925V187.925Z" fill="#66253C"/>
<path fill-rule="evenodd" clip-rule="evenodd" d="M157.333 207.045C155.197 207.808 152.897 208.224 150.499 208.224H145.859C134.92 208.224 126.003 199.571 125.577 188.737C128.678 187.576 133.282 187.71 137.827 187.842C139.27 187.884 140.708 187.925 142.09 187.925C151.058 187.925 158.328 194.287 158.328 202.134C158.328 203.86 157.977 205.514 157.333 207.045Z" fill="#B03E67"/>
<path d="M129.911 183.866H170.508V187.925C170.508 190.168 168.69 191.985 166.448 191.985H133.97C131.728 191.985 129.911 190.168 129.911 187.925V183.866Z" fill="white"/>
<path d="M138.03 185.084C138.03 184.411 138.575 183.866 139.248 183.866H144.932C145.604 183.866 146.149 184.411 146.149 185.084V194.827C146.149 195.5 145.604 196.045 144.932 196.045H139.248C138.575 196.045 138.03 195.5 138.03 194.827V185.084Z" fill="#B03E67"/>
</g>
<rect x="121.791" y="139.209" width="12.1791" height="16.2388" rx="6.08955" fill="#1B0B47"/>
<rect x="162.388" y="139.209" width="12.1791" height="16.2388" rx="6.08955" fill="#1B0B47"/>
<g clip-path="url(#clip2)">
<g clip-path="url(#clip3)">
<rect x="34.2175" y="241.116" width="149.132" height="85.7508" rx="33.5547" fill="#E05A33"/>
<path d="M71.5005 233.659H142.338V244.844C142.338 244.844 123.697 248.572 106.919 248.572C90.142 248.572 71.5005 244.844 71.5005 244.844V233.659Z" fill="#E05A33"/>
<path d="M71.5005 233.659H142.338V241.116C142.338 241.116 131.153 246.708 106.919 246.708C82.6854 246.708 71.5005 241.116 71.5005 241.116V233.659Z" fill="#C53926"/>
<path d="M69.6362 237.388C69.6362 233.269 72.9747 229.931 77.0928 229.931H136.746C140.864 229.931 144.202 233.269 144.202 237.388V237.388C144.202 237.388 125.561 241.116 106.919 241.116C88.2777 241.116 69.6362 237.388 69.6362 237.388V237.388Z" fill="#E05A33"/>
</g>
</g>
</g>
<defs>
<clipPath id="clip0">
<rect width="259.821" height="259.821" fill="white" transform="translate(0 -2.88062)"/>
</clipPath>
<clipPath id="clip1">
<rect width="259.821" height="259.821" fill="white" transform="translate(12.1792 1.1792)"/>
</clipPath>
<clipPath id="clip2">
<rect width="238.611" height="238.611" fill="white" transform="translate(8.11938 17.418)"/>
</clipPath>
<clipPath id="clip3">
<rect width="238.611" height="238.611" fill="white" transform="translate(8.11938 17.418)"/>
</clipPath>
</defs>
</svg>
