<svg width="256" height="256" viewBox="0 0 256 256" fill="none" xmlns="http://www.w3.org/2000/svg">
<mask id="mask0" style="mask-type:alpha" maskUnits="userSpaceOnUse" x="0" y="0" width="256" height="256">
<circle r="128" transform="matrix(-1 0 0 1 128 128)" fill="#C4C4C4"/>
</mask>
<g mask="url(#mask0)">
<ellipse cx="132" cy="132.5" rx="144" ry="148.5" fill="#E4ECF7"/>
<g clip-path="url(#clip0)">
<circle cx="75.5938" cy="150.109" r="19.6094" fill="#F5D0C5"/>
<path d="M75.5938 165.797H142.266V263.336C142.266 263.336 127.979 271.687 108.93 271.687C89.8806 271.687 75.5938 258.05 75.5938 258.05V165.797Z" fill="#F5D0C5"/>
<path d="M142.266 216.263C142.266 238.437 128.538 240.311 116.315 236.338C104.091 232.364 79.5149 197.774 79.5149 175.6C79.5149 153.426 82.5901 154.031 100.744 154.031C152.07 155.992 142.266 194.089 142.266 216.263Z" fill="#C99688"/>
<path d="M184.958 146.577C184.958 181.569 169.713 220.703 144.22 226.586C106.963 222.664 73.352 181.569 73.352 146.577C63.8281 105.008 65.789 55.9844 130.5 55.9844C195.211 55.9844 184.958 111.584 184.958 146.577Z" fill="#F5D0C5"/>
<rect x="146.188" y="165.797" width="11.7656" height="7.84375" rx="3.92188" fill="#EAC0B3"/>
</g>
<g clip-path="url(#clip1)">
<g clip-path="url(#clip2)">
<rect x="38.0559" y="240.713" width="144.069" height="82.8396" rx="32.4155" fill="#3633E0"/>
<path d="M74.073 233.509H142.506V244.314C142.506 244.314 124.497 247.916 108.289 247.916C92.0816 247.916 74.073 244.314 74.073 244.314V233.509Z" fill="#3633E0"/>
<path d="M74.073 233.509H142.506V240.712C142.506 240.712 131.701 246.115 108.289 246.115C84.8782 246.115 74.073 240.712 74.073 240.712V233.509Z" fill="#362ABC"/>
<path d="M72.2722 237.111C72.2722 233.133 75.4973 229.907 79.4757 229.907H137.103C141.082 229.907 144.307 233.133 144.307 237.111V237.111C144.307 237.111 126.298 240.713 108.289 240.713C90.2808 240.713 72.2722 237.111 72.2722 237.111V237.111Z" fill="#3633E0"/>
</g>
</g>
<g clip-path="url(#clip3)">
<path fill-rule="evenodd" clip-rule="evenodd" d="M193.25 103.047C193.25 93.7764 191.424 84.5966 187.876 76.0318C184.329 67.467 179.129 59.6848 172.574 53.1296C166.018 46.5743 158.236 41.3744 149.671 37.8268C141.106 34.2791 131.927 32.4531 122.656 32.4531C113.386 32.4531 104.206 34.2791 95.6412 37.8268C87.0764 41.3744 79.2942 46.5743 72.7389 53.1296C66.1837 59.6848 60.9838 67.467 57.4361 76.0318C54.1393 83.9911 52.3293 92.4815 52.0898 101.082L52.0625 101.086V103.047V259.922H95.2031V140.687C104.948 138.812 121.791 134.687 143.082 125.953C164.509 117.164 177.881 108.86 184.919 103.847C185.869 113.745 185.54 124.082 185.234 133.695V133.695V133.695C185.092 138.187 184.954 142.52 184.954 146.577C184.954 148.175 184.922 149.783 184.859 151.395C185.765 151.109 186.612 150.796 187.363 150.453C193.245 147.77 193.245 144.192 193.245 144.192V103.047H193.25ZM63.8281 134.422C63.0875 134.977 62.3854 135.586 61.7278 136.243C59.9069 138.064 58.4625 140.226 57.477 142.605C56.4916 144.984 55.9844 147.534 55.9844 150.109C55.9844 152.685 56.4916 155.234 57.477 157.614C58.4625 159.993 59.9069 162.154 61.7278 163.975C62.3854 164.633 63.0875 165.241 63.8281 165.797V134.422Z" fill="#AD3A20"/>
</g>
<rect x="99.125" y="157.953" width="19.6094" height="11.7656" rx="5.88281" fill="#FF859B"/>
<rect x="173.641" y="157.953" width="15.6875" height="11.7656" rx="5.88281" fill="#FF859B"/>
<path d="M173.641 152.07C173.641 155.319 171.007 157.953 167.758 157.953V157.953C164.509 157.953 161.875 155.319 161.875 152.07L161.875 147.257C161.875 146.666 162.354 146.188 162.945 146.187L172.571 146.187C173.162 146.187 173.641 146.666 173.641 147.257L173.641 152.07Z" fill="#1B0B47"/>
<path d="M134.422 152.07C134.422 155.319 131.788 157.953 128.539 157.953V157.953C125.29 157.953 122.656 155.319 122.656 152.07L122.656 147.257C122.656 146.666 123.135 146.188 123.726 146.187L133.352 146.187C133.943 146.187 134.422 146.666 134.422 147.257L134.422 152.07Z" fill="#1B0B47"/>
<line x1="120.695" y1="148.148" x2="136.383" y2="148.148" stroke="#1B0B47" stroke-width="3.92188" stroke-linecap="round"/>
<line x1="159.914" y1="148.148" x2="175.602" y2="148.148" stroke="#1B0B47" stroke-width="3.92188" stroke-linecap="round"/>
</g>
<defs>
<clipPath id="clip0">
<rect width="251" height="251" fill="white" transform="translate(5 5)"/>
</clipPath>
<clipPath id="clip1">
<rect width="230.51" height="230.51" fill="white" transform="translate(12.8438 24.6094)"/>
</clipPath>
<clipPath id="clip2">
<rect width="230.51" height="230.51" fill="white" transform="translate(12.8438 24.6094)"/>
</clipPath>
<clipPath id="clip3">
<rect width="251" height="251" fill="white" transform="translate(5 5)"/>
</clipPath>
</defs>
</svg>
