<svg width="256" height="256" viewBox="0 0 256 256" fill="none" xmlns="http://www.w3.org/2000/svg">
<mask id="mask0" style="mask-type:alpha" maskUnits="userSpaceOnUse" x="0" y="0" width="256" height="256">
<circle cx="128" cy="128" r="128" fill="#681414"/>
</mask>
<g mask="url(#mask0)">
<circle cx="127" cy="129" r="137" fill="#591111"/>
<g clip-path="url(#clip0)">
<circle cx="75.125" cy="146.312" r="20.3125" fill="#F5D0C5"/>
<path d="M75.125 162.562H144.188V263.599C144.188 263.599 129.388 272.25 109.656 272.25C89.9241 272.25 75.125 258.123 75.125 258.123V162.562Z" fill="#F5D0C5"/>
<path d="M144.187 214.838C144.187 237.807 129.968 239.748 117.306 235.632C104.644 231.516 79.1868 195.686 79.1868 172.717C79.1868 149.748 82.3722 150.375 101.177 150.375C154.344 152.406 144.187 191.869 144.187 214.838Z" fill="#C99688"/>
<path d="M188.411 142.653C188.411 178.9 172.619 219.438 146.212 225.531C107.619 221.469 72.8029 178.9 72.8029 142.653C62.9375 99.5938 64.9687 48.8125 132 48.8125C199.031 48.8125 188.411 106.405 188.411 142.653Z" fill="#F5D0C5"/>
<rect x="148.25" y="162.562" width="12.1875" height="8.125" rx="4.0625" fill="#EAC0B3"/>
</g>
<g clip-path="url(#clip1)">
<path d="M1.99601 36.6171C34.4848 4.1327 54.8162 48.8098 54.8162 48.8098L46.6854 81.3075C46.6854 81.3075 38.5591 91.4624 46.6854 121.931C54.8117 152.4 36.5278 168.65 36.5278 168.65C36.5278 168.65 22.3125 178.812 10.125 170.687C-2.06254 162.562 -3.6778 154.756 -2.06255 140.219C-0.0312973 121.937 6.05898 128.025 6.05898 109.744C6.05898 91.4624 -30.4928 69.1014 1.99601 36.6171Z" fill="#47280B"/>
<path d="M54.9374 49.5491L77.3105 59.2232L62.7994 92.7828L40.4263 83.1087C40.4263 83.1087 36.5309 75.2186 42.6176 63.0349C48.7043 50.8512 54.9374 49.5491 54.9374 49.5491Z" fill="#FF6C98"/>
<path fill-rule="evenodd" clip-rule="evenodd" d="M75.125 162.563L69.7485 126.719C61.1394 129.076 54.8125 136.955 54.8125 146.313C54.8125 157.531 63.9067 166.625 75.125 166.625V200.344C68.8308 194.797 63.2397 188.191 58.5393 180.72C51.6297 169.738 46.806 157.141 44.3938 143.781C41.9817 130.421 42.0372 116.608 44.5568 103.275C47.0763 89.9419 52.0011 77.3994 58.9988 66.4941C65.9964 55.5888 74.9039 46.5747 85.12 40.0602C95.336 33.5457 106.623 29.6826 118.218 28.7317C120.749 28.5241 123.282 28.4564 125.809 28.527C126.518 28.509 127.227 28.5 127.938 28.5C138.074 28.5 148.111 30.3389 157.476 33.9117C166.841 37.4845 175.35 42.7212 182.517 49.3229C189.685 55.9245 195.37 63.7619 199.249 72.3873C202.282 79.1305 204.164 86.2521 204.841 93.5H205.125V99.5938V110.911C205.125 110.911 203.789 111.531 201.069 112.401V146.883C201.069 146.883 201.069 152.584 194.975 156.861C192.866 158.341 190.027 159.479 187.217 160.335C188.014 154.438 188.423 148.49 188.423 142.653C188.423 138.451 188.566 133.962 188.714 129.31C188.858 124.768 189.008 120.07 189.034 115.33C181.514 116.709 171.295 117.875 158.25 117.875C126.375 117.875 107.625 110.911 107.625 110.911V106.854C104.86 111.175 101.872 116.402 99.5 121.938C96.4531 129.047 96.4531 136.334 96.4531 142.459C96.4531 148.584 96.4531 153.547 93.4063 156.005C87.3125 160.923 75.125 162.563 75.125 162.563Z" fill="#47280B"/>
</g>
<g clip-path="url(#clip2)">
<g clip-path="url(#clip3)">
<rect x="36.241" y="240.165" width="149.235" height="85.8099" rx="33.5778" fill="#E05A33"/>
<path d="M73.5498 232.703H144.436V243.895C144.436 243.895 125.782 247.626 108.993 247.626C92.2041 247.626 73.5498 243.895 73.5498 243.895V232.703Z" fill="#E05A33"/>
<path d="M73.5498 232.703H144.436V240.165C144.436 240.165 133.244 245.761 108.993 245.761C84.7424 245.761 73.5498 240.165 73.5498 240.165V232.703Z" fill="#C53926"/>
<path d="M71.6843 236.434C71.6843 232.313 75.0251 228.972 79.1461 228.972H138.84C142.961 228.972 146.302 232.313 146.302 236.434V236.434C146.302 236.434 127.647 240.165 108.993 240.165C90.3387 240.165 71.6843 236.434 71.6843 236.434V236.434Z" fill="#E05A33"/>
</g>
</g>
<g clip-path="url(#clip4)">
<g clip-path="url(#clip5)">
<rect x="123.875" y="138.188" width="12.1875" height="16.25" rx="6.09375" fill="#1B0B47"/>
<rect x="164.5" y="138.188" width="12.1875" height="16.25" rx="6.09375" fill="#1B0B47"/>
<rect x="99.5" y="150.375" width="20.3125" height="12.1875" rx="6.09375" fill="#FF859B"/>
<rect x="176.688" y="150.375" width="16.25" height="12.1875" rx="6.09375" fill="#FF859B"/>
</g>
</g>
</g>
<defs>
<clipPath id="clip0">
<rect width="260" height="260" fill="white" transform="translate(2 -4)"/>
</clipPath>
<clipPath id="clip1">
<rect width="260" height="260" fill="white" transform="translate(2 -4)"/>
</clipPath>
<clipPath id="clip2">
<rect width="238.775" height="238.775" fill="white" transform="translate(10.125 16.3125)"/>
</clipPath>
<clipPath id="clip3">
<rect width="238.775" height="238.775" fill="white" transform="translate(10.125 16.3125)"/>
</clipPath>
<clipPath id="clip4">
<path d="M2 126C2 54.203 60.203 -4 132 -4V-4C203.797 -4 262 54.203 262 126V126C262 197.797 203.797 256 132 256V256C60.203 256 2 197.797 2 126V126Z" fill="white"/>
</clipPath>
<clipPath id="clip5">
<path d="M2 121.938C2 50.1405 60.203 -8.0625 132 -8.0625V-8.0625C203.797 -8.0625 262 50.1405 262 121.938V121.938C262 193.735 203.797 251.938 132 251.938V251.938C60.203 251.938 2 193.735 2 121.938V121.938Z" fill="white"/>
</clipPath>
</defs>
</svg>
