<svg width="256" height="256" viewBox="0 0 256 256" fill="none" xmlns="http://www.w3.org/2000/svg">
<mask id="mask0" style="mask-type:alpha" maskUnits="userSpaceOnUse" x="0" y="0" width="256" height="256">
<circle r="128" transform="matrix(-1 0 0 1 128 128)" fill="#C4C4C4"/>
</mask>
<g mask="url(#mask0)">
<ellipse cx="148" cy="111" rx="182" ry="187" fill="#C4C4C4"/>
<g clip-path="url(#clip0)">
<circle cx="72" cy="148" r="20" fill="#F5D0C5"/>
<path d="M72 164H140V263.482C140 263.482 125.429 272 106 272C86.5714 272 72 258.09 72 258.09V164Z" fill="#F5D0C5"/>
<path d="M140 215.471C140 238.087 125.999 239.999 113.532 235.946C101.065 231.893 75.9993 196.614 75.9993 173.999C75.9993 151.383 79.1357 152 97.6515 152C150 154 140 192.856 140 215.471Z" fill="#C99688"/>
<path d="M183.543 144.397C183.543 180.087 167.994 220 141.994 226C103.994 222 69.7135 180.087 69.7135 144.397C59.9999 102 61.9998 52 128 52C194 52 183.543 108.707 183.543 144.397Z" fill="#F5D0C5"/>
<rect x="144" y="164" width="12" height="8" rx="4" fill="#EAC0B3"/>
</g>
<g clip-path="url(#clip1)">
<g clip-path="url(#clip2)">
<rect x="33.7144" y="240.408" width="146.939" height="84.4898" rx="33.0612" fill="#FF4DD8"/>
<path d="M70.449 233.061H140.245V244.081C140.245 244.081 121.878 247.755 105.347 247.755C88.8163 247.755 70.449 244.081 70.449 244.081V233.061Z" fill="#FF4DD8"/>
<path d="M70.449 233.061H140.245V240.408C140.245 240.408 129.224 245.918 105.347 245.918C81.4694 245.918 70.449 240.408 70.449 240.408V233.061Z" fill="#D2499B"/>
<path d="M68.6123 236.735C68.6123 232.677 71.9016 229.388 75.9592 229.388H134.735C138.792 229.388 142.082 232.677 142.082 236.735V236.735C142.082 236.735 123.714 240.408 105.347 240.408C86.9797 240.408 68.6123 236.735 68.6123 236.735V236.735Z" fill="#FF4DD8"/>
</g>
</g>
<rect x="96" y="156" width="20" height="12" rx="6" fill="#FF859B"/>
<rect x="172" y="156" width="16" height="12" rx="6" fill="#FF859B"/>
<path d="M120 150C120 146.686 122.686 144 126 144V144C129.314 144 132 146.686 132 150V154.909C132 155.512 131.512 156 130.909 156H121.091C120.488 156 120 155.512 120 154.909V150Z" fill="#1B0B47"/>
<path d="M160 150C160 146.686 162.686 144 166 144V144C169.314 144 172 146.686 172 150V154.909C172 155.512 171.512 156 170.909 156H161.091C160.488 156 160 155.512 160 154.909V150Z" fill="#1B0B47"/>
</g>
<defs>
<clipPath id="clip0">
<rect width="256" height="256" fill="white"/>
</clipPath>
<clipPath id="clip1">
<rect width="235.102" height="235.102" fill="white" transform="translate(8 20)"/>
</clipPath>
<clipPath id="clip2">
<rect width="235.102" height="235.102" fill="white" transform="translate(8 20)"/>
</clipPath>
</defs>
</svg>
