<svg width="256" height="256" viewBox="0 0 256 256" fill="none" xmlns="http://www.w3.org/2000/svg">
<mask id="mask0" style="mask-type:alpha" maskUnits="userSpaceOnUse" x="0" y="0" width="256" height="256">
<circle r="128" transform="matrix(-1 0 0 1 128 128)" fill="#C4C4C4"/>
</mask>
<g mask="url(#mask0)">
<circle cx="128" cy="146" r="163" fill="#84C86C"/>
<g clip-path="url(#clip0)">
<circle cx="77.0938" cy="156.656" r="18.3594" fill="#68463C"/>
<path d="M77.0938 171.344H139.516V262.665C139.516 262.665 126.14 270.484 108.305 270.484C90.4699 270.484 77.0938 257.716 77.0938 257.716V171.344Z" fill="#68463C"/>
<path d="M139.516 218.593C139.516 239.353 136.276 237.388 115.219 237.388C94.1621 237.388 84.4434 220.558 84.4434 199.798C84.4434 179.037 83.6442 160.328 100.641 160.328C148.695 162.164 139.516 197.832 139.516 218.593Z" fill="#553329"/>
<path d="M179.487 153.349C179.487 186.111 193.021 226.397 134.008 226.397C74.9949 226.397 74.9949 186.111 74.9949 153.349C66.0781 114.43 67.914 68.5313 128.5 68.5313C189.086 68.5312 179.487 120.586 179.487 153.349Z" fill="#836055"/>
<rect x="143.188" y="171.344" width="11.0156" height="7.34375" rx="3.67188" fill="#68463C"/>
</g>
<g clip-path="url(#clip1)">
<path fill-rule="evenodd" clip-rule="evenodd" d="M148.695 178.688C124.828 184.195 108.305 186.031 108.305 186.031C108.305 186.031 111.977 195.211 121.156 193.375C128.5 191.906 143.188 188.479 148.695 186.031V178.688ZM150.531 178.688C172.563 182.359 187.25 185.135 187.25 185.135C187.25 185.135 183.141 193.151 174.398 191.539C174.019 191.469 173.626 191.397 173.221 191.323C166.162 190.025 155.492 188.064 150.531 186.031V178.688Z" fill="#1B0B47"/>
</g>
<path d="M86.9098 106.061V128.158C86.9098 130.956 84.4375 134.625 82.6016 136.461C80.7656 138.297 75.2578 141.969 72.14 141.969C69.0221 141.969 59.1425 140.311 54.4161 133.682C49.6898 127.053 51.139 92.1075 54.4161 83.9632C57.6932 75.819 69.7743 58.6735 86.9098 45.5847C99.32 36.1053 115.059 28.2642 134.173 25.9579C225.746 14.9092 191.722 79.4973 179.906 96.0703C159.711 88.7265 145.023 86.8906 118.523 90.4976C92.0224 94.1047 89.0892 97.7741 86.9098 106.061Z" fill="#1B0B47"/>
<g clip-path="url(#clip2)">
<g clip-path="url(#clip3)">
<rect x="42.4404" y="242.027" width="137.695" height="79.1748" rx="30.9814" fill="#3633E0"/>
<path d="M76.8643 235.143H142.27V245.47C142.27 245.47 125.058 248.912 109.567 248.912C94.0762 248.912 76.8643 245.47 76.8643 245.47V235.143Z" fill="#3633E0"/>
<path d="M76.8643 235.143H142.27V242.027C142.27 242.027 131.942 247.191 109.567 247.191C87.1914 247.191 76.8643 242.027 76.8643 242.027V235.143Z" fill="#362ABC"/>
<path d="M75.1431 238.585C75.1431 234.783 78.2255 231.7 82.0278 231.7H137.106C140.908 231.7 143.991 234.783 143.991 238.585V238.585C143.991 238.585 126.779 242.027 109.567 242.027C92.355 242.027 75.1431 238.585 75.1431 238.585V238.585Z" fill="#3633E0"/>
</g>
</g>
<g clip-path="url(#clip4)">
<g clip-path="url(#clip5)">
<rect x="99.125" y="164" width="18.3594" height="11.0156" rx="5.50781" fill="#FF859B"/>
<rect x="168.891" y="164" width="14.6875" height="11.0156" rx="5.50781" fill="#FF859B"/>
<path d="M121.156 158.492C121.156 155.45 123.622 152.984 126.664 152.984V152.984C129.706 152.984 132.172 155.45 132.172 158.492V162.999C132.172 163.552 131.724 164 131.17 164H122.158C121.605 164 121.156 163.552 121.156 162.999V158.492Z" fill="#1B0B47"/>
<path d="M157.875 158.492C157.875 155.45 160.341 152.984 163.383 152.984V152.984C166.425 152.984 168.891 155.45 168.891 158.492V162.999C168.891 163.552 168.442 164 167.889 164H158.876C158.323 164 157.875 163.552 157.875 162.999V158.492Z" fill="#1B0B47"/>
</g>
</g>
</g>
<defs>
<clipPath id="clip0">
<rect width="235" height="235" fill="white" transform="translate(11 20.7969)"/>
</clipPath>
<clipPath id="clip1">
<path d="M11 138.297C11 73.4034 63.6065 20.7969 128.5 20.7969V20.7969C193.393 20.7969 246 73.4034 246 138.297V138.297C246 203.19 193.393 255.797 128.5 255.797V255.797C63.6065 255.797 11 203.19 11 138.297V138.297Z" fill="white"/>
</clipPath>
<clipPath id="clip2">
<rect width="220.312" height="220.312" fill="white" transform="translate(18.3438 35.4844)"/>
</clipPath>
<clipPath id="clip3">
<rect width="220.312" height="220.312" fill="white" transform="translate(18.3438 35.4844)"/>
</clipPath>
<clipPath id="clip4">
<path d="M11 138.297C11 73.4034 63.6065 20.7969 128.5 20.7969V20.7969C193.393 20.7969 246 73.4034 246 138.297V138.297C246 203.19 193.393 255.797 128.5 255.797V255.797C63.6065 255.797 11 203.19 11 138.297V138.297Z" fill="white"/>
</clipPath>
<clipPath id="clip5">
<path d="M11 138.297C11 73.4034 63.6065 20.7969 128.5 20.7969V20.7969C193.393 20.7969 246 73.4034 246 138.297V138.297C246 203.19 193.393 255.797 128.5 255.797V255.797C63.6065 255.797 11 203.19 11 138.297V138.297Z" fill="white"/>
</clipPath>
</defs>
</svg>
