<svg width="256" height="256" viewBox="0 0 256 256" fill="none" xmlns="http://www.w3.org/2000/svg">
<mask id="mask0" style="mask-type:alpha" maskUnits="userSpaceOnUse" x="0" y="0" width="256" height="256">
<circle r="128" transform="matrix(-1 0 0 1 128 128)" fill="#C4C4C4"/>
</mask>
<g mask="url(#mask0)">
<ellipse cx="117" cy="128" rx="158" ry="153" fill="#276318"/>
<g clip-path="url(#clip0)">
<circle cx="69.2188" cy="141.672" r="21.1719" fill="#EAC0B3"/>
<path d="M69.2188 158.609H141.203V263.92C141.203 263.92 125.778 272.937 105.211 272.937C84.644 272.937 69.2188 258.213 69.2188 258.213V158.609Z" fill="#EAC0B3"/>
<path d="M140.404 209.897C140.404 232.698 136.716 230.539 112.738 230.539C88.7607 230.539 77.6942 212.055 77.6942 189.255C77.6942 166.454 76.7841 145.906 96.1384 145.906C150.857 147.923 140.404 187.096 140.404 209.897Z" fill="#C99688"/>
<path d="M187.298 137.857C187.298 175.639 181.43 222.096 134.852 222.096C88.2734 222.096 66.7984 175.639 66.7984 137.857C56.5156 92.9766 58.6327 40.0469 128.5 40.0469C198.367 40.0469 187.298 100.076 187.298 137.857Z" fill="#F5D0C5"/>
<rect x="145.438" y="158.609" width="12.7031" height="8.46875" rx="4.23438" fill="#EAC0B3"/>
</g>
<g clip-path="url(#clip1)">
<g clip-path="url(#clip2)">
<rect x="24.4553" y="239.495" width="155.548" height="89.4404" rx="34.9984" fill="#FF4DD8"/>
</g>
</g>
<path fill-rule="evenodd" clip-rule="evenodd" d="M115.648 95.9455C139.408 103.834 172.342 114.768 206.836 80.2735C223.773 63.336 147.555 -8.64838 86.1562 31.5782C38.1669 38.6877 40.9095 67.4427 43.0261 89.6342C43.4307 93.8769 43.8125 97.8796 43.8125 101.445C43.8125 103.702 44.1074 105.39 44.6607 106.604C43.98 111.825 43.8124 117.05 43.8124 120.5C43.8124 129.854 51.3956 137.437 60.7499 137.437C70.1043 137.437 77.6874 129.854 77.6874 120.5C87.0418 120.5 94.6249 112.917 94.6249 103.562C94.6249 102.097 94.4389 100.676 94.0892 99.3197C94.2671 99.3252 94.4457 99.328 94.6249 99.328C99.8066 99.328 104.445 97.0012 107.552 93.3354C110.111 94.1073 112.815 95.0047 115.648 95.9455Z" fill="#1B0B47"/>
<rect x="120.031" y="137.438" width="12.7031" height="16.9375" rx="6.35156" fill="#1B0B47"/>
<rect x="162.375" y="137.438" width="12.7031" height="16.9375" rx="6.35156" fill="#1B0B47"/>
<rect x="94.625" y="150.141" width="21.1719" height="12.7031" rx="6.35156" fill="#FF859B"/>
<rect x="175.078" y="150.141" width="16.9375" height="12.7031" rx="6.35156" fill="#FF859B"/>
</g>
<defs>
<clipPath id="clip0">
<rect width="271" height="271" fill="white" transform="translate(-7 -15)"/>
</clipPath>
<clipPath id="clip1">
<rect width="248.878" height="248.878" fill="white" transform="translate(-2.76562 6.17188)"/>
</clipPath>
<clipPath id="clip2">
<rect width="248.878" height="248.878" fill="white" transform="translate(-2.76562 6.17188)"/>
</clipPath>
</defs>
</svg>
