<svg width="256" height="256" viewBox="0 0 256 256" fill="none" xmlns="http://www.w3.org/2000/svg">
<mask id="mask0" style="mask-type:alpha" maskUnits="userSpaceOnUse" x="0" y="0" width="256" height="256">
<circle cx="128" cy="128" r="128" fill="#F1DC21"/>
</mask>
<g mask="url(#mask0)">
<ellipse cx="148.5" cy="143.5" rx="170.5" ry="199.5" fill="#D4E328"/>
<g clip-path="url(#clip0)">
<circle cx="72" cy="148" r="20" fill="#EAC0B3"/>
<path d="M72 164H140V263.482C140 263.482 125.429 272 106 272C86.5714 272 72 258.09 72 258.09V164Z" fill="#EAC0B3"/>
<path d="M140 215.471C140 238.087 136.471 235.946 113.532 235.946C90.5936 235.946 80.0064 217.612 80.0064 194.997C80.0064 172.381 79.1358 152 97.6516 152C150 154 140 192.856 140 215.471Z" fill="#C99688"/>
<path d="M183.543 144.397C183.543 180.087 198.286 223.973 134 223.973C69.7135 223.973 69.7135 180.087 69.7135 144.397C59.9999 102 61.9998 52 128 52C194 52 183.543 108.707 183.543 144.397Z" fill="#F5D0C5"/>
<rect x="144" y="164" width="12" height="8" rx="4" fill="#EAC0B3"/>
</g>
<g clip-path="url(#clip1)">
<g clip-path="url(#clip2)">
<rect x="33.7144" y="240.408" width="146.939" height="84.4898" rx="33.0612" fill="#FF4DD8"/>
<path d="M70.449 233.061H140.245V244.082C140.245 244.082 121.878 247.755 105.347 247.755C88.8163 247.755 70.449 244.082 70.449 244.082V233.061Z" fill="#FF4DD8"/>
<path d="M70.449 233.061H140.245V240.408C140.245 240.408 129.224 245.918 105.347 245.918C81.4694 245.918 70.449 240.408 70.449 240.408V233.061Z" fill="#D2499B"/>
<path d="M68.6123 236.735C68.6123 232.677 71.9016 229.388 75.9592 229.388H134.735C138.792 229.388 142.082 232.677 142.082 236.735V236.735C142.082 236.735 123.714 240.408 105.347 240.408C86.9797 240.408 68.6123 236.735 68.6123 236.735V236.735Z" fill="#FF4DD8"/>
</g>
</g>
<path d="M88.0002 112C85.4831 124 92.0002 139.924 92.0002 142.973C92.0002 146.022 76.2754 155.074 72.0002 158C67.725 160.926 66.0001 130 66.0001 130C54 130 52.0001 152 52.0001 152C52.0001 152 43.0216 149.04 40.0001 134C37.959 123.84 41.1938 101.644 42.0001 96C44.0002 82.0001 46.0002 50.0001 72.0002 34.0001C98.0002 18.0001 164 18.0001 180 22.0001C219.574 31.8936 224.872 85.946 212 104C192 126 136 100 118 100C100 100 90.5172 100 88.0002 112Z" fill="#47280B"/>
<rect x="96" y="156" width="20" height="12" rx="6" fill="#FF859B"/>
<rect x="172" y="156" width="16" height="12" rx="6" fill="#FF859B"/>
<path d="M172 150C172 153.314 169.314 156 166 156V156C162.686 156 160 153.314 160 150L160 145.091C160 144.488 160.488 144 161.091 144L170.909 144C171.512 144 172 144.488 172 145.091L172 150Z" fill="#1B0B47"/>
<path d="M132 150C132 153.314 129.314 156 126 156V156C122.686 156 120 153.314 120 150L120 145.091C120 144.488 120.488 144 121.091 144L130.909 144C131.512 144 132 144.488 132 145.091L132 150Z" fill="#1B0B47"/>
<line x1="118" y1="146" x2="134" y2="146" stroke="#1B0B47" stroke-width="4" stroke-linecap="round"/>
<line x1="158" y1="146" x2="174" y2="146" stroke="#1B0B47" stroke-width="4" stroke-linecap="round"/>
</g>
<defs>
<clipPath id="clip0">
<rect width="256" height="256" fill="white"/>
</clipPath>
<clipPath id="clip1">
<rect width="235.102" height="235.102" fill="white" transform="translate(8 20)"/>
</clipPath>
<clipPath id="clip2">
<rect width="235.102" height="235.102" fill="white" transform="translate(8 20)"/>
</clipPath>
</defs>
</svg>
