<svg width="256" height="256" viewBox="0 0 256 256" fill="none" xmlns="http://www.w3.org/2000/svg">
<mask id="mask0" style="mask-type:alpha" maskUnits="userSpaceOnUse" x="0" y="0" width="256" height="256">
<circle r="128" transform="matrix(-1 0 0 1 128 128)" fill="#C4C4C4"/>
</mask>
<g mask="url(#mask0)">
<ellipse cx="128" cy="128" rx="202" ry="183" fill="#68DBF2"/>
<g clip-path="url(#clip0)">
<circle cx="72" cy="148" r="20" fill="#F0BD70"/>
<path d="M72 164H140V263.482C140 263.482 125.429 272 106 272C86.5714 272 72 258.09 72 258.09V164Z" fill="#F0BD70"/>
<path d="M139.245 212.449C139.245 233.987 135.761 231.948 113.111 231.948C90.4603 231.948 80.0064 214.488 80.0064 192.949C80.0064 171.41 79.1466 152 97.4296 152C149.12 153.905 139.245 190.91 139.245 212.449Z" fill="#E9B05B"/>
<path d="M183.543 144.397C183.543 180.087 178 223.973 134 223.973C89.9998 223.973 69.7135 180.087 69.7135 144.397C59.9999 102 61.9998 52 128 52C194 52 183.543 108.707 183.543 144.397Z" fill="#FFCB7E"/>
<rect x="144" y="164" width="12" height="8" rx="4" fill="#F0BD70"/>
</g>
<g clip-path="url(#clip1)">
<g clip-path="url(#clip2)">
<rect x="33.7144" y="240.408" width="146.939" height="84.4898" rx="33.0612" fill="#E05A33"/>
<path d="M70.449 233.061H140.245V244.081C140.245 244.081 121.878 247.755 105.347 247.755C88.8163 247.755 70.449 244.081 70.449 244.081V233.061Z" fill="#E05A33"/>
<path d="M70.449 233.061H140.245V240.408C140.245 240.408 129.224 245.918 105.347 245.918C81.4694 245.918 70.449 240.408 70.449 240.408V233.061Z" fill="#C53926"/>
<path d="M68.6123 236.735C68.6123 232.677 71.9016 229.388 75.9592 229.388H134.735C138.792 229.388 142.082 232.677 142.082 236.735V236.735C142.082 236.735 123.714 240.408 105.347 240.408C86.9796 240.408 68.6123 236.735 68.6123 236.735V236.735Z" fill="#E05A33"/>
</g>
</g>
<g clip-path="url(#clip3)">
<path d="M-0.00398126 39.9921C31.985 8.00749 52.0036 51.9973 52.0036 51.9973L43.9979 83.995C43.9979 83.995 35.9966 93.9936 43.9979 123.994C51.9992 153.994 33.9966 169.994 33.9966 169.994C33.9966 169.994 19.9999 180 7.9999 172C-4.0001 164 -5.59051 156.314 -4.0001 142C-2.0001 124 3.99648 129.994 3.99648 111.994C3.99648 93.9936 -31.9929 71.9767 -0.00398126 39.9921Z" fill="#AD3A20"/>
<path d="M52.123 52.7253L74.1518 62.2505L59.864 95.2938L37.8352 85.7686C37.8352 85.7686 33.9997 77.9999 39.9927 66.0036C45.9858 54.0073 52.123 52.7253 52.123 52.7253Z" fill="#FF6C98"/>
<path fill-rule="evenodd" clip-rule="evenodd" d="M199.72 96C199.054 88.8636 197.201 81.8516 194.215 75.2122C190.395 66.7194 184.797 59.0026 177.74 52.5025C170.683 46.0024 162.305 40.8463 153.084 37.3284C143.863 33.8106 133.98 32 124 32C123.301 32 122.602 32.0089 121.904 32.0266C119.416 31.957 116.922 32.0237 114.43 32.2281C103.013 33.1644 91.9001 36.9681 81.8412 43.3823C71.7823 49.7966 63.0118 58.6721 56.1219 69.4096C49.2319 80.1471 44.3828 92.4967 41.902 105.624C39.4213 118.752 39.3666 132.353 41.7416 145.507C44.1167 158.662 48.8662 171.065 55.6695 181.878C60.2975 189.234 65.8026 195.739 72 201.2V168C60.9543 168 52 159.046 52 148C52 138.787 58.2295 131.029 66.7062 128.708L72 164C72 164 84 162.386 90 157.544C93 155.123 93 150.237 93 144.206C93 138.175 93 131 96 124C98.3358 118.55 101.278 113.403 104 109.149V113.143C104 113.143 122.462 120 153.846 120C166.69 120 176.752 118.852 184.157 117.495C184.131 122.161 183.984 126.787 183.842 131.259V131.259C183.696 135.84 183.555 140.26 183.555 144.397C183.555 150.144 183.152 156 182.367 161.807C185.135 160.964 187.93 159.843 190.006 158.386C196.006 154.175 196.006 148.561 196.006 148.561V114.61C198.685 113.753 200 113.143 200 113.143V102V96H199.72Z" fill="#AD3A20"/>
</g>
<g clip-path="url(#clip4)">
<path d="M120 150C120 146.686 122.686 144 126 144V144C129.314 144 132 146.686 132 150V154.909C132 155.512 131.512 156 130.909 156H121.091C120.488 156 120 155.512 120 154.909V150Z" fill="#1B0B47"/>
<path d="M160 150C160 146.686 162.686 144 166 144V144C169.314 144 172 146.686 172 150V154.909C172 155.512 171.512 156 170.909 156H161.091C160.488 156 160 155.512 160 154.909V150Z" fill="#1B0B47"/>
</g>
</g>
<defs>
<clipPath id="clip0">
<rect width="256" height="256" fill="white"/>
</clipPath>
<clipPath id="clip1">
<rect width="235.102" height="235.102" fill="white" transform="translate(8 20)"/>
</clipPath>
<clipPath id="clip2">
<rect width="235.102" height="235.102" fill="white" transform="translate(8 20)"/>
</clipPath>
<clipPath id="clip3">
<rect width="256" height="256" fill="white"/>
</clipPath>
<clipPath id="clip4">
<path d="M0 128C0 57.3076 57.3076 0 128 0V0C198.692 0 256 57.3076 256 128V128C256 198.692 198.692 256 128 256V256C57.3076 256 0 198.692 0 128V128Z" fill="white"/>
</clipPath>
</defs>
</svg>
