<svg width="256" height="256" viewBox="0 0 256 256" fill="none" xmlns="http://www.w3.org/2000/svg">
<mask id="mask0" style="mask-type:alpha" maskUnits="userSpaceOnUse" x="0" y="0" width="256" height="256">
<circle cx="128" cy="128" r="128" fill="#C4C4C4"/>
</mask>
<g mask="url(#mask0)">
<circle cx="129" cy="134" r="128" fill="#276318"/>
<g clip-path="url(#clip0)">
<circle cx="74.4545" cy="145.318" r="20.6818" fill="#EAC0B3"/>
<path d="M74.4546 161.864H144.773V264.737C144.773 264.737 129.705 273.545 109.614 273.545C89.5228 273.545 74.4546 259.162 74.4546 259.162V161.864Z" fill="#EAC0B3"/>
<path d="M143.992 211.964C143.992 234.237 140.389 232.128 116.967 232.128C93.5442 232.128 82.7339 214.073 82.7339 191.8C82.7339 169.527 81.8449 149.455 100.751 149.455C154.203 151.424 143.992 189.691 143.992 211.964Z" fill="#C99688"/>
<path d="M189.8 141.592C189.8 178.499 184.068 223.881 138.568 223.881C93.0681 223.881 72.0902 178.499 72.0902 141.592C62.0454 97.75 64.1135 46.0454 132.364 46.0454C200.614 46.0454 189.8 104.686 189.8 141.592Z" fill="#F5D0C5"/>
<rect x="148.909" y="161.864" width="12.4091" height="8.27273" rx="4.13636" fill="#EAC0B3"/>
</g>
<g clip-path="url(#clip1)">
<g clip-path="url(#clip2)">
<rect x="34.8635" y="240.877" width="151.948" height="87.3701" rx="34.1883" fill="#FF4DD8"/>
<path d="M72.8506 233.279H145.026V244.675C145.026 244.675 126.032 248.474 108.938 248.474C91.8441 248.474 72.8506 244.675 72.8506 244.675V233.279Z" fill="#FF4DD8"/>
<path d="M72.8506 233.279H145.026V240.877C145.026 240.877 133.63 246.575 108.938 246.575C84.2467 246.575 72.8506 240.877 72.8506 240.877V233.279Z" fill="#D2499B"/>
<path d="M70.9512 237.078C70.9512 232.882 74.3526 229.481 78.5486 229.481H139.328C143.524 229.481 146.925 232.882 146.925 237.078V237.078C146.925 237.078 127.932 240.877 108.938 240.877C89.9447 240.877 70.9512 237.078 70.9512 237.078V237.078Z" fill="#FF4DD8"/>
</g>
</g>
<path fill-rule="evenodd" clip-rule="evenodd" d="M99.2728 95.6817C99.2728 97.8758 98.8457 99.9702 98.0702 101.886C98.8457 103.802 99.2728 105.897 99.2728 108.091C99.2728 117.229 91.8652 124.636 82.7274 124.636C82.7274 133.774 75.3197 141.182 66.1819 141.182C57.0441 141.182 49.6365 133.774 49.6365 124.636C49.6365 120.31 49.9061 113.127 51.1597 106.762C50.182 104.65 49.6365 102.298 49.6365 99.818C49.6365 90.6802 57.0441 83.2726 66.1819 83.2726C67.8649 83.2726 69.4892 83.5239 71.0193 83.991C74.0141 80.9917 78.1541 79.1362 82.7274 79.1362C91.8652 79.1362 99.2728 86.5439 99.2728 95.6817Z" fill="#AD3A20"/>
<path fill-rule="evenodd" clip-rule="evenodd" d="M189.647 132.465C196.942 130.74 202.37 124.186 202.37 116.364C202.37 114.17 201.943 112.075 201.167 110.159C201.943 108.243 202.37 106.149 202.37 103.955C202.37 95.6251 196.215 88.7332 188.205 87.5791C190.656 100.569 190.2 114.924 189.784 128.007C189.736 129.511 189.689 130.999 189.647 132.465Z" fill="#AD3A20"/>
<g clip-path="url(#clip3)">
<path fill-rule="evenodd" clip-rule="evenodd" d="M119.955 182.545C119.955 175.692 125.51 170.136 132.364 170.136H177.864C184.717 170.136 190.273 175.692 190.273 182.545H119.955ZM119.955 182.545H136.5V211.5C136.5 220.638 129.092 228.045 119.955 228.045V182.545ZM173.727 211.5V182.545H190.273V228.045C181.135 228.045 173.727 220.638 173.727 211.5Z" fill="#AD3A20"/>
</g>
<g clip-path="url(#clip4)">
<rect x="124.091" y="132.909" width="12.4091" height="16.5455" rx="6.20455" fill="#1B0B47"/>
<rect x="165.454" y="132.909" width="12.4091" height="16.5455" rx="6.20455" fill="#1B0B47"/>
</g>
</g>
<defs>
<clipPath id="clip0">
<rect width="264.727" height="264.727" fill="white" transform="translate(0 -7.72729)"/>
</clipPath>
<clipPath id="clip1">
<rect width="243.117" height="243.117" fill="white" transform="translate(8.27271 12.9546)"/>
</clipPath>
<clipPath id="clip2">
<rect width="243.117" height="243.117" fill="white" transform="translate(8.27271 12.9546)"/>
</clipPath>
<clipPath id="clip3">
<path d="M8.27271 124.636C8.27271 51.5339 67.5339 -7.72729 140.636 -7.72729V-7.72729C213.739 -7.72729 273 51.5339 273 124.636V124.636C273 197.739 213.739 257 140.636 257V257C67.5339 257 8.27271 197.739 8.27271 124.636V124.636Z" fill="white"/>
</clipPath>
<clipPath id="clip4">
<path d="M0 116.364C0 43.2612 59.2612 -16 132.364 -16V-16C205.466 -16 264.727 43.2612 264.727 116.364V116.364C264.727 189.466 205.466 248.727 132.364 248.727V248.727C59.2612 248.727 0 189.466 0 116.364V116.364Z" fill="white"/>
</clipPath>
</defs>
</svg>
