<svg width="24" height="24" viewBox="0 0 24 24" fill="none" xmlns="http://www.w3.org/2000/svg">
<path d="M19.7104 3.36349L2.24221 8.29043C2.09525 8.33188 1.96445 8.41719 1.86728 8.53497C1.77011 8.65275 1.7112 8.79738 1.69843 8.94954C1.68566 9.10169 1.71963 9.25412 1.79581 9.38645C1.87199 9.51878 1.98675 9.6247 2.12474 9.69007L10.1508 13.4919C10.3073 13.566 10.4333 13.6921 10.5075 13.8486L14.3093 21.8746C14.3746 22.0126 14.4806 22.1274 14.6129 22.2035C14.7452 22.2797 14.8977 22.3137 15.0498 22.3009C15.202 22.2882 15.3466 22.2292 15.4644 22.1321C15.5822 22.0349 15.6675 21.9041 15.7089 21.7571L20.6359 4.28892C20.6721 4.16061 20.6734 4.02497 20.6397 3.89597C20.6061 3.76697 20.5386 3.64927 20.4444 3.555C20.3501 3.46073 20.2324 3.39329 20.1034 3.35963C19.9744 3.32597 19.8387 3.3273 19.7104 3.36349Z" stroke="#FAFAFA" stroke-width="1.5" stroke-linecap="round" stroke-linejoin="round"/>
<path d="M10.3936 13.6065L14.6362 9.36389" stroke="#FAFAFA" stroke-width="1.5" stroke-linecap="round" stroke-linejoin="round"/>
</svg>
