<svg width="40" height="40" viewBox="0 0 40 40" fill="none" xmlns="http://www.w3.org/2000/svg">
<circle cx="20" cy="20" r="20" fill="#655BA0"/>
<path d="M8.5 14.3C8.1134 14.3 7.8 14.6134 7.8 15C7.8 15.3866 8.1134 15.7 8.5 15.7V14.3ZM33.495 26.995C33.7683 26.7216 33.7683 26.2784 33.495 26.005L29.0402 21.5503C28.7668 21.2769 28.3236 21.2769 28.0503 21.5503C27.7769 21.8236 27.7769 22.2668 28.0503 22.5402L32.01 26.5L28.0503 30.4598C27.7769 30.7332 27.7769 31.1764 28.0503 31.4497C28.3236 31.7231 28.7668 31.7231 29.0402 31.4497L33.495 26.995ZM8.5 15.7C10.634 15.7 12.3557 15.7004 13.7551 15.7998C15.1612 15.8997 16.1625 16.0959 16.8838 16.4432C17.5687 16.773 18.0243 17.2496 18.327 18.0031C18.6441 18.7925 18.8 19.9044 18.8 21.5H20.2C20.2 19.8456 20.0434 18.52 19.6261 17.4813C19.1944 16.4066 18.4938 15.6645 17.4912 15.1818C16.525 14.7166 15.3076 14.5066 13.8543 14.4033C12.3943 14.2996 10.616 14.3 8.5 14.3V15.7ZM18.8 21.5C18.8 23.2549 19.2763 24.5754 20.1953 25.5133C21.099 26.4357 22.3429 26.8967 23.6947 27.1275C25.0476 27.3585 26.5901 27.3718 28.1658 27.3326C29.77 27.2927 31.3829 27.2 33 27.2V25.8C31.3671 25.8 29.6675 25.8948 28.131 25.933C26.5662 25.972 25.1399 25.954 23.9303 25.7475C22.7196 25.5408 21.8072 25.1581 21.1953 24.5335C20.5987 23.9246 20.2 22.9951 20.2 21.5H18.8Z" fill="white"/>
<path d="M6 29C4.61929 29 3.5 27.8807 3.5 26.5C3.5 25.1193 4.61929 24 6 24V29ZM6 24C10.2025 24 13.1344 23.6134 14.9452 22.8304C15.8048 22.4586 16.2807 22.0518 16.5503 21.6737C16.8053 21.316 17 20.812 17 20H22C22 21.688 21.5697 23.2465 20.6215 24.5763C19.688 25.8857 18.3827 26.7914 16.9298 27.4196C14.1156 28.6366 10.2975 29 6 29V24ZM17 20C17 18.0847 17.7055 16.4731 18.9949 15.2767C20.195 14.1632 21.7399 13.5572 23.2201 13.1962C26.1381 12.4845 29.8531 12.5 33 12.5V17.5C29.6469 17.5 26.6119 17.5155 24.4049 18.0538C23.3226 18.3178 22.7112 18.6493 22.3957 18.942C22.1695 19.1519 22 19.4153 22 20H17Z" fill="#655BA0"/>
<path d="M8.5 27.2C8.1134 27.2 7.8 26.8866 7.8 26.5C7.8 26.1134 8.1134 25.8 8.5 25.8V27.2ZM33.495 14.505C33.7683 14.7784 33.7683 15.2216 33.495 15.495L29.0402 19.9497C28.7668 20.2231 28.3236 20.2231 28.0503 19.9497C27.7769 19.6764 27.7769 19.2332 28.0503 18.9598L32.01 15L28.0503 11.0402C27.7769 10.7668 27.7769 10.3236 28.0503 10.0503C28.3236 9.77689 28.7668 9.77689 29.0402 10.0503L33.495 14.505ZM8.5 25.8C12.7597 25.8 15.3269 25.4139 16.8306 24.5228C17.5519 24.0954 18.0281 23.5503 18.3347 22.8457C18.6488 22.1238 18.8 21.1993 18.8 20H20.2C20.2 21.3007 20.0387 22.4387 19.6184 23.4043C19.1907 24.3872 18.5106 25.1546 17.5444 25.7272C15.6731 26.8361 12.7403 27.2 8.5 27.2V25.8ZM18.8 20C18.8 18.5637 19.3125 17.4375 20.2192 16.5962C21.1009 15.7782 22.3097 15.271 23.6466 14.9449C26.3087 14.2957 29.7789 14.3 33 14.3V15.7C29.7211 15.7 26.4413 15.7043 23.9784 16.3051C22.7528 16.604 21.8054 17.0343 21.1714 17.6225C20.5625 18.1875 20.2 18.9363 20.2 20H18.8Z" fill="white"/>
</svg>
