<svg width="40" height="40" viewBox="0 0 40 40" fill="none" xmlns="http://www.w3.org/2000/svg">
<circle cx="20" cy="20" r="20" fill="#655BA0"/>
<path d="M17.8429 21.4391L17.8387 21.445L17.8345 21.4509C17.2912 22.2339 17.0299 23.1418 17.0299 24.1436V24.3923V25.1423H17.7799H21.1342H21.8842V24.3923V24.1436C21.8842 23.7171 22.0081 23.3535 22.2598 23.0263L22.2599 23.0264L22.2683 23.015C22.5803 22.5931 23.089 22.0512 23.8185 21.3841C24.4617 20.8045 25.0001 20.2825 25.4297 19.8194C25.8992 19.3133 26.2863 18.7202 26.5954 18.0482L26.5955 18.0482L26.5989 18.0405C26.9266 17.3066 27.0833 16.5007 27.0833 15.6354C27.0833 14.4192 26.7792 13.3112 26.1569 12.3345C25.5343 11.3387 24.6482 10.576 23.5274 10.0422C22.4209 9.50625 21.1601 9.25 19.7645 9.25C18.3216 9.25 17.0159 9.5378 15.868 10.136L16.21 10.7924L15.868 10.136C14.7157 10.7364 13.8162 11.6033 13.1848 12.7264C12.5539 13.8486 12.25 15.1297 12.25 16.547V16.6575V17.4075H13H16.4382H17.1882V16.6575V16.5746C17.1882 15.8455 17.3918 15.1967 17.8033 14.6071C18.139 14.1486 18.726 13.8439 19.7645 13.8439C20.5812 13.8439 21.1569 14.0549 21.5673 14.4082L21.5672 14.4083L21.578 14.4172C21.9603 14.7341 22.1731 15.1724 22.1731 15.8287C22.1731 16.3706 22.0182 16.8394 21.7059 17.2603L21.7032 17.2639C21.3534 17.7412 20.7881 18.348 19.9832 19.0892L19.9832 19.0891L19.9755 19.0963C19.0634 19.9602 18.3467 20.742 17.8429 21.4391ZM17.5746 29.9673L17.5813 29.9742L17.5881 29.981C18.106 30.4928 18.7541 30.75 19.485 30.75C20.213 30.75 20.8573 30.4942 21.3606 29.9743C21.8689 29.4687 22.1357 28.8381 22.1357 28.1215C22.1357 27.405 21.8689 26.7744 21.3606 26.2688C20.8573 25.7489 20.213 25.4931 19.485 25.4931C18.7541 25.4931 18.106 25.7503 17.5881 26.2621L17.5813 26.2689L17.5746 26.2758C17.0849 26.7853 16.8342 27.4141 16.8342 28.1215C16.8342 28.829 17.0849 29.4578 17.5746 29.9673Z" stroke="white" stroke-width="1.5"/>
</svg>
