<svg width="980" height="713" viewBox="0 0 980 713" fill="none" xmlns="http://www.w3.org/2000/svg">
<g opacity="0.02">
<path d="M0 19C42 19 48 1 86 1C124 1 134 19 162 19C190 19 198 1 238 1C278 1 282 19 312 19C342 19 352 1 390 1C428 1 436 19 466 19C496 19 504 1 544 1C584 1 588 19 618 19C648 19 654 1 692 1C730 1 736 19 764 19C792 19 806 1 848 1C890 1 898 19 930 19C962 19 970 1 1008 1" stroke="black" stroke-width="2"/>
<path d="M0 40C42 40 48 22 86 22C124 22 134 40 162 40C190 40 198 22 238 22C278 22 282 40 312 40C342 40 352 22 390 22C428 22 436 40 466 40C496 40 504 22 544 22C584 22 588 40 618 40C648 40 654 22 692 22C730 22 736 40 764 40C792 40 806 22 848 22C890 22 898 40 930 40C962 40 970 22 1008 22" stroke="black" stroke-width="2"/>
<path d="M0 61C42 61 48 43 86 43C124 43 134 61 162 61C190 61 198 43 238 43C278 43 282 61 312 61C342 61 352 43 390 43C428 43 436 61 466 61C496 61 504 43 544 43C584 43 588 61 618 61C648 61 654 43 692 43C730 43 736 61 764 61C792 61 806 43 848 43C890 43 898 61 930 61C962 61 970 43 1008 43" stroke="black" stroke-width="2"/>
<path d="M0 82C42 82 48 64 86 64C124 64 134 82 162 82C190 82 198 64 238 64C278 64 282 82 312 82C342 82 352 64 390 64C428 64 436 82 466 82C496 82 504 64 544 64C584 64 588 82 618 82C648 82 654 64 692 64C730 64 736 82 764 82C792 82 806 64 848 64C890 64 898 82 930 82C962 82 970 64 1008 64" stroke="black" stroke-width="2"/>
<path d="M0 103C42 103 48 85 86 85C124 85 134 103 162 103C190 103 198 85 238 85C278 85 282 103 312 103C342 103 352 85 390 85C428 85 436 103 466 103C496 103 504 85 544 85C584 85 588 103 618 103C648 103 654 85 692 85C730 85 736 103 764 103C792 103 806 85 848 85C890 85 898 103 930 103C962 103 970 85 1008 85" stroke="black" stroke-width="2"/>
<path d="M0 124C42 124 48 106 86 106C124 106 134 124 162 124C190 124 198 106 238 106C278 106 282 124 312 124C342 124 352 106 390 106C428 106 436 124 466 124C496 124 504 106 544 106C584 106 588 124 618 124C648 124 654 106 692 106C730 106 736 124 764 124C792 124 806 106 848 106C890 106 898 124 930 124C962 124 970 106 1008 106" stroke="black" stroke-width="2"/>
<path d="M0 145C42 145 48 127 86 127C124 127 134 145 162 145C190 145 198 127 238 127C278 127 282 145 312 145C342 145 352 127 390 127C428 127 436 145 466 145C496 145 504 127 544 127C584 127 588 145 618 145C648 145 654 127 692 127C730 127 736 145 764 145C792 145 806 127 848 127C890 127 898 145 930 145C962 145 970 127 1008 127" stroke="black" stroke-width="2"/>
<path d="M0 166C42 166 48 148 86 148C124 148 134 166 162 166C190 166 198 148 238 148C278 148 282 166 312 166C342 166 352 148 390 148C428 148 436 166 466 166C496 166 504 148 544 148C584 148 588 166 618 166C648 166 654 148 692 148C730 148 736 166 764 166C792 166 806 148 848 148C890 148 898 166 930 166C962 166 970 148 1008 148" stroke="black" stroke-width="2"/>
<path d="M0 187C42 187 48 169 86 169C124 169 134 187 162 187C190 187 198 169 238 169C278 169 282 187 312 187C342 187 352 169 390 169C428 169 436 187 466 187C496 187 504 169 544 169C584 169 588 187 618 187C648 187 654 169 692 169C730 169 736 187 764 187C792 187 806 169 848 169C890 169 898 187 930 187C962 187 970 169 1008 169" stroke="black" stroke-width="2"/>
<path d="M0 208C42 208 48 190 86 190C124 190 134 208 162 208C190 208 198 190 238 190C278 190 282 208 312 208C342 208 352 190 390 190C428 190 436 208 466 208C496 208 504 190 544 190C584 190 588 208 618 208C648 208 654 190 692 190C730 190 736 208 764 208C792 208 806 190 848 190C890 190 898 208 930 208C962 208 970 190 1008 190" stroke="black" stroke-width="2"/>
<path d="M0 229C42 229 48 211 86 211C124 211 134 229 162 229C190 229 198 211 238 211C278 211 282 229 312 229C342 229 352 211 390 211C428 211 436 229 466 229C496 229 504 211 544 211C584 211 588 229 618 229C648 229 654 211 692 211C730 211 736 229 764 229C792 229 806 211 848 211C890 211 898 229 930 229C962 229 970 211 1008 211" stroke="black" stroke-width="2"/>
<path d="M0 250C42 250 48 232 86 232C124 232 134 250 162 250C190 250 198 232 238 232C278 232 282 250 312 250C342 250 352 232 390 232C428 232 436 250 466 250C496 250 504 232 544 232C584 232 588 250 618 250C648 250 654 232 692 232C730 232 736 250 764 250C792 250 806 232 848 232C890 232 898 250 930 250C962 250 970 232 1008 232" stroke="black" stroke-width="2"/>
<path d="M0 271C42 271 48 253 86 253C124 253 134 271 162 271C190 271 198 253 238 253C278 253 282 271 312 271C342 271 352 253 390 253C428 253 436 271 466 271C496 271 504 253 544 253C584 253 588 271 618 271C648 271 654 253 692 253C730 253 736 271 764 271C792 271 806 253 848 253C890 253 898 271 930 271C962 271 970 253 1008 253" stroke="black" stroke-width="2"/>
<path d="M0 292C42 292 48 274 86 274C124 274 134 292 162 292C190 292 198 274 238 274C278 274 282 292 312 292C342 292 352 274 390 274C428 274 436 292 466 292C496 292 504 274 544 274C584 274 588 292 618 292C648 292 654 274 692 274C730 274 736 292 764 292C792 292 806 274 848 274C890 274 898 292 930 292C962 292 970 274 1008 274" stroke="black" stroke-width="2"/>
<path d="M0 313C42 313 48 295 86 295C124 295 134 313 162 313C190 313 198 295 238 295C278 295 282 313 312 313C342 313 352 295 390 295C428 295 436 313 466 313C496 313 504 295 544 295C584 295 588 313 618 313C648 313 654 295 692 295C730 295 736 313 764 313C792 313 806 295 848 295C890 295 898 313 930 313C962 313 970 295 1008 295" stroke="black" stroke-width="2"/>
<path d="M0 334C42 334 48 316 86 316C124 316 134 334 162 334C190 334 198 316 238 316C278 316 282 334 312 334C342 334 352 316 390 316C428 316 436 334 466 334C496 334 504 316 544 316C584 316 588 334 618 334C648 334 654 316 692 316C730 316 736 334 764 334C792 334 806 316 848 316C890 316 898 334 930 334C962 334 970 316 1008 316" stroke="black" stroke-width="2"/>
<path d="M0 355C42 355 48 337 86 337C124 337 134 355 162 355C190 355 198 337 238 337C278 337 282 355 312 355C342 355 352 337 390 337C428 337 436 355 466 355C496 355 504 337 544 337C584 337 588 355 618 355C648 355 654 337 692 337C730 337 736 355 764 355C792 355 806 337 848 337C890 337 898 355 930 355C962 355 970 337 1008 337" stroke="black" stroke-width="2"/>
<path d="M0 376C42 376 48 358 86 358C124 358 134 376 162 376C190 376 198 358 238 358C278 358 282 376 312 376C342 376 352 358 390 358C428 358 436 376 466 376C496 376 504 358 544 358C584 358 588 376 618 376C648 376 654 358 692 358C730 358 736 376 764 376C792 376 806 358 848 358C890 358 898 376 930 376C962 376 970 358 1008 358" stroke="black" stroke-width="2"/>
<path d="M0 397C42 397 48 379 86 379C124 379 134 397 162 397C190 397 198 379 238 379C278 379 282 397 312 397C342 397 352 379 390 379C428 379 436 397 466 397C496 397 504 379 544 379C584 379 588 397 618 397C648 397 654 379 692 379C730 379 736 397 764 397C792 397 806 379 848 379C890 379 898 397 930 397C962 397 970 379 1008 379" stroke="black" stroke-width="2"/>
<path d="M0 418C42 418 48 400 86 400C124 400 134 418 162 418C190 418 198 400 238 400C278 400 282 418 312 418C342 418 352 400 390 400C428 400 436 418 466 418C496 418 504 400 544 400C584 400 588 418 618 418C648 418 654 400 692 400C730 400 736 418 764 418C792 418 806 400 848 400C890 400 898 418 930 418C962 418 970 400 1008 400" stroke="black" stroke-width="2"/>
<path d="M0 439C42 439 48 421 86 421C124 421 134 439 162 439C190 439 198 421 238 421C278 421 282 439 312 439C342 439 352 421 390 421C428 421 436 439 466 439C496 439 504 421 544 421C584 421 588 439 618 439C648 439 654 421 692 421C730 421 736 439 764 439C792 439 806 421 848 421C890 421 898 439 930 439C962 439 970 421 1008 421" stroke="black" stroke-width="2"/>
<path d="M0 460C42 460 48 442 86 442C124 442 134 460 162 460C190 460 198 442 238 442C278 442 282 460 312 460C342 460 352 442 390 442C428 442 436 460 466 460C496 460 504 442 544 442C584 442 588 460 618 460C648 460 654 442 692 442C730 442 736 460 764 460C792 460 806 442 848 442C890 442 898 460 930 460C962 460 970 442 1008 442" stroke="black" stroke-width="2"/>
<path d="M0 481C42 481 48 463 86 463C124 463 134 481 162 481C190 481 198 463 238 463C278 463 282 481 312 481C342 481 352 463 390 463C428 463 436 481 466 481C496 481 504 463 544 463C584 463 588 481 618 481C648 481 654 463 692 463C730 463 736 481 764 481C792 481 806 463 848 463C890 463 898 481 930 481C962 481 970 463 1008 463" stroke="black" stroke-width="2"/>
<path d="M0 502C42 502 48 484 86 484C124 484 134 502 162 502C190 502 198 484 238 484C278 484 282 502 312 502C342 502 352 484 390 484C428 484 436 502 466 502C496 502 504 484 544 484C584 484 588 502 618 502C648 502 654 484 692 484C730 484 736 502 764 502C792 502 806 484 848 484C890 484 898 502 930 502C962 502 970 484 1008 484" stroke="black" stroke-width="2"/>
<path d="M0 523C42 523 48 505 86 505C124 505 134 523 162 523C190 523 198 505 238 505C278 505 282 523 312 523C342 523 352 505 390 505C428 505 436 523 466 523C496 523 504 505 544 505C584 505 588 523 618 523C648 523 654 505 692 505C730 505 736 523 764 523C792 523 806 505 848 505C890 505 898 523 930 523C962 523 970 505 1008 505" stroke="black" stroke-width="2"/>
<path d="M0 544C42 544 48 526 86 526C124 526 134 544 162 544C190 544 198 526 238 526C278 526 282 544 312 544C342 544 352 526 390 526C428 526 436 544 466 544C496 544 504 526 544 526C584 526 588 544 618 544C648 544 654 526 692 526C730 526 736 544 764 544C792 544 806 526 848 526C890 526 898 544 930 544C962 544 970 526 1008 526" stroke="black" stroke-width="2"/>
<path d="M0 565C42 565 48 547 86 547C124 547 134 565 162 565C190 565 198 547 238 547C278 547 282 565 312 565C342 565 352 547 390 547C428 547 436 565 466 565C496 565 504 547 544 547C584 547 588 565 618 565C648 565 654 547 692 547C730 547 736 565 764 565C792 565 806 547 848 547C890 547 898 565 930 565C962 565 970 547 1008 547" stroke="black" stroke-width="2"/>
<path d="M0 586C42 586 48 568 86 568C124 568 134 586 162 586C190 586 198 568 238 568C278 568 282 586 312 586C342 586 352 568 390 568C428 568 436 586 466 586C496 586 504 568 544 568C584 568 588 586 618 586C648 586 654 568 692 568C730 568 736 586 764 586C792 586 806 568 848 568C890 568 898 586 930 586C962 586 970 568 1008 568" stroke="black" stroke-width="2"/>
<path d="M0 607C42 607 48 589 86 589C124 589 134 607 162 607C190 607 198 589 238 589C278 589 282 607 312 607C342 607 352 589 390 589C428 589 436 607 466 607C496 607 504 589 544 589C584 589 588 607 618 607C648 607 654 589 692 589C730 589 736 607 764 607C792 607 806 589 848 589C890 589 898 607 930 607C962 607 970 589 1008 589" stroke="black" stroke-width="2"/>
<path d="M0 628C42 628 48 610 86 610C124 610 134 628 162 628C190 628 198 610 238 610C278 610 282 628 312 628C342 628 352 610 390 610C428 610 436 628 466 628C496 628 504 610 544 610C584 610 588 628 618 628C648 628 654 610 692 610C730 610 736 628 764 628C792 628 806 610 848 610C890 610 898 628 930 628C962 628 970 610 1008 610" stroke="black" stroke-width="2"/>
<path d="M0 649C42 649 48 631 86 631C124 631 134 649 162 649C190 649 198 631 238 631C278 631 282 649 312 649C342 649 352 631 390 631C428 631 436 649 466 649C496 649 504 631 544 631C584 631 588 649 618 649C648 649 654 631 692 631C730 631 736 649 764 649C792 649 806 631 848 631C890 631 898 649 930 649C962 649 970 631 1008 631" stroke="black" stroke-width="2"/>
<path d="M0 670C42 670 48 652 86 652C124 652 134 670 162 670C190 670 198 652 238 652C278 652 282 670 312 670C342 670 352 652 390 652C428 652 436 670 466 670C496 670 504 652 544 652C584 652 588 670 618 670C648 670 654 652 692 652C730 652 736 670 764 670C792 670 806 652 848 652C890 652 898 670 930 670C962 670 970 652 1008 652" stroke="black" stroke-width="2"/>
<path d="M0 691C42 691 48 673 86 673C124 673 134 691 162 691C190 691 198 673 238 673C278 673 282 691 312 691C342 691 352 673 390 673C428 673 436 691 466 691C496 691 504 673 544 673C584 673 588 691 618 691C648 691 654 673 692 673C730 673 736 691 764 691C792 691 806 673 848 673C890 673 898 691 930 691C962 691 970 673 1008 673" stroke="black" stroke-width="2"/>
<path d="M0 712C42 712 48 694 86 694C124 694 134 712 162 712C190 712 198 694 238 694C278 694 282 712 312 712C342 712 352 694 390 694C428 694 436 712 466 712C496 712 504 694 544 694C584 694 588 712 618 712C648 712 654 694 692 694C730 694 736 712 764 712C792 712 806 694 848 694C890 694 898 712 930 712C962 712 970 694 1008 694" stroke="black" stroke-width="2"/>
</g>
</svg>
