<svg width="252" height="367" viewBox="0 0 252 367" fill="none" xmlns="http://www.w3.org/2000/svg">
<path d="M250.344 101.923C196.844 71.9235 81.3436 -72.5765 50.8436 54.4235C20.3436 181.423 125.844 117.423 98.3436 211.923C70.8436 306.423 -78.6561 276.923 63.3439 363.923M105.344 359.423C39.3438 315.423 16.3438 318.923 46.3438 298.923C76.3438 278.923 126.344 276.923 130.344 217.423C134.344 157.923 124.344 132.423 90.3438 119.923C56.3438 107.423 81.8434 38.9235 98.3436 38.9235C114.844 38.9235 130.844 41.4235 213.344 115.423M209.344 139.423C171.344 108.923 125.344 58.9235 111.844 65.4235C98.3436 71.9235 92.8438 93.4235 105.344 101.923C117.844 110.423 164.344 135.423 158.844 211.923C153.344 288.423 81.3438 313.423 69.3438 314.423C59.7437 315.223 114.677 342.09 143.344 355.423M197.344 359.423C130.344 320.923 109.844 314.423 130.344 308.923C150.844 303.423 183.344 263.423 183.344 240.423C183.344 217.423 186.844 165.423 174.844 152.423C162.844 139.423 187.344 152.423 209.344 170.423" stroke="#655BA0" stroke-width="5"/>
</svg>
