<svg width="141" height="261" viewBox="0 0 141 261" fill="none" xmlns="http://www.w3.org/2000/svg">
<path d="M48.5752 57C111.575 39 109.075 -35.5 5.57518 -42.5C-12.2582 -38.5 -55.5248 -30.5 -85.9248 -30.5C-123.925 -30.5 -128.925 190.5 -54.9248 224.5C19.0752 258.5 -14.4248 75 48.5752 57Z" stroke="#655BA0" stroke-width="5"/>
<path d="M18.5752 214.5C5.5752 263.5 -42.9248 269 -79.9248 241.5L-67.9248 -15.5C-4.59148 -27.1667 124.275 -45.9 133.075 -27.5C144.075 -4.49999 139.075 58 82.0752 71C25.0752 84 31.5752 165.5 18.5752 214.5Z" stroke="#655BA0" stroke-width="5"/>
<path d="M35 29.5C67.5 21.5 59.5 10.5 51 -8H-15L-9.5 95.5C-5.5 76.1667 9 35.9 35 29.5Z" stroke="#655BA0" stroke-width="5"/>
</svg>
